<svg width="1440" height="1024" viewBox="0 0 1440 1024" fill="none" xmlns="http://www.w3.org/2000/svg">
<g clip-path="url(#clip0_1_4)">
<rect width="1440" height="1024" fill="white"/>
<path d="M358 326.5H537V557L358 563V326.5Z" stroke="black"/>
<path d="M284.5 256L316.5 257.5L317 502.5L289 504V520L111.5 521.5V559.5C111.5 560.3 66.5 571.833 44 577.5L40 502L19.5 500V296.5L40 297.5L41 245.5L284.5 248V256Z" stroke="black"/>
<path d="M550.5 444.5L549 325L870.5 322.5L874 354.5H1069.5V443.5L550.5 444.5Z" stroke="black" stroke-width="1.5"/>
<path d="M1092.5 445V354.5L1208 352V438.5L1092.5 445Z" stroke="black" stroke-width="1.5"/>
<path d="M1125 576.5V443.5L1208 438.5L1211.5 579L1125 576.5Z" stroke="black" stroke-width="1.5"/>
<path d="M1243 572.5V439L1397 437.5V572.5H1243Z" stroke="black" stroke-width="1.5"/>
<path d="M862 278.5H595.5L593.5 153.5H610V135L862 133V278.5Z" stroke="black" stroke-width="1.5"/>
<path d="M538.5 710.5V680L795 629.5C788 528 945 502 973 604L1005 600L1006 663.5H1051.5V720.5H981.5V762L612.5 767L611 710.5H538.5Z" fill="#FFC4C4" stroke="white"/>
<path d="M538.5 680.5V711L611 710.5L612.5 767L982 762V720.5H1051.5L1051 663L1006 663.5L1004.5 600" stroke="black" stroke-width="1.5"/>
<path d="M805.469 679.406C806.156 680.156 805.906 680.531 804.719 680.531C803.781 682.531 802.531 684.438 800.969 686.25C802.656 687.25 803.844 688.156 804.531 688.969C804.969 689.719 805 690.344 804.625 690.844C804.25 691.281 803.719 691.188 803.031 690.562C801.844 689.375 800.719 688.406 799.656 687.656C797.344 689.719 794.969 691.219 792.531 692.156C791.969 692.281 791.875 692.156 792.25 691.781C795 689.969 797.031 688.281 798.344 686.719C796.844 685.719 795.062 684.875 793 684.188C792.25 683.875 792.312 683.719 793.188 683.719C795.375 684.031 797.438 684.594 799.375 685.406C800.688 683.719 802.031 681.219 803.406 677.906L805.469 679.406ZM793.094 678.562C795.031 679.375 796.031 680.438 796.094 681.75C796.094 682.75 795.719 683.219 794.969 683.156C794.344 683.094 794 682.531 793.938 681.469C793.688 680.406 793.281 679.562 792.719 678.938C792.094 678.438 792.219 678.312 793.094 678.562ZM797.125 677.625C799.125 678.312 800.156 679.312 800.219 680.625C800.219 681.562 799.844 682.031 799.094 682.031C798.531 682.031 798.188 681.438 798.062 680.25C797.875 679.375 797.469 678.625 796.844 678C796.281 677.562 796.375 677.438 797.125 677.625ZM809.406 675.656C809.969 676.406 809.781 676.812 808.844 676.875V694.969L808.281 695.25C807.469 695.562 806.938 695.562 806.688 695.25V693.562H791.219V695.062L790.656 695.344C789.844 695.656 789.312 695.656 789.062 695.344V673.875L791.406 675.188H806.406L807.531 673.781L809.406 675.656ZM791.219 693H806.688V675.75H791.219V693ZM830.406 688.688C830.969 689.188 830.875 689.562 830.125 689.812V694.781L829.656 695.062C828.719 695.438 828.156 695.438 827.969 695.062V694.312H817.938V695.062L817.469 695.344C816.531 695.719 815.969 695.719 815.781 695.344V687.094L818.125 688.219H827.781L828.719 687L830.406 688.688ZM823.656 673.312C824.844 673.688 824.875 674.156 823.75 674.719V675.375H827.406L828.531 674.062L830.312 675.844C830.812 676.469 830.594 676.875 829.656 677.062V678H830.969L832.469 676.5L834.25 677.906C834.5 678.156 834.438 678.375 834.062 678.562H829.656V681.844L829.188 682.125C828.438 682.5 827.969 682.469 827.781 682.031V681.281H823.75V683.438H828.625L830.125 681.938L831.906 683.344C832.156 683.594 832.094 683.812 831.719 684H823.75V685.875H830.406L831.906 684.375L833.688 685.781C833.938 686.031 833.875 686.25 833.5 686.438H811.938V685.875H821.594V684H813.719V683.438H821.594V681.281H814.938V680.719H821.594V678.562H811.844V678H821.594V675.938H814.938V675.375H821.594V673.125L823.656 673.312ZM817.938 693.75H827.969V691.406H817.938V693.75ZM817.938 690.844H827.969V688.781H817.938V690.844ZM823.75 680.719H827.781V678.562H823.75V680.719ZM823.75 678H827.781V675.938H823.75V678ZM842.219 674.156C842.406 674.344 842.312 674.531 841.938 674.719L841.469 674.906C844.156 675.656 845.5 676.781 845.5 678.281C845.5 678.906 845.188 679.219 844.562 679.219C844.062 679.219 843.688 678.875 843.438 678.188C843 677.062 842.281 676.125 841.281 675.375C839.781 678.375 837.938 680.625 835.75 682.125C835.375 682.25 835.281 682.188 835.469 681.938C837.406 679.938 838.906 677.062 839.969 673.312L842.219 674.156ZM841.844 678.375C842.719 678.625 842.688 679 841.75 679.5V681.469H842.594L843.719 680.156L845.5 681.938C846 682.562 845.781 682.969 844.844 683.156V688.125L844.375 688.406C843.625 688.781 843.156 688.75 842.969 688.312V687.188H839.219V692.531L842.781 691.688C842.406 691.062 841.875 690.344 841.188 689.531C841.062 689.344 841.156 689.281 841.469 689.344C844.156 690.281 845.5 691.469 845.5 692.906C845.5 693.969 845.094 694.5 844.281 694.5C843.906 694.5 843.656 694.281 843.531 693.844C843.344 693.344 843.156 692.875 842.969 692.438L838.188 694.688C838 695.75 837.656 696.031 837.156 695.531L835.75 693.281L837.344 692.906V680.906L839.406 681.469H840.156V678.188L841.844 678.375ZM855.812 681.938C856.312 682.562 856.094 682.969 855.156 683.156V686.719L854.688 687C853.938 687.375 853.469 687.344 853.281 686.906V686.156H848.969V688.688H853.562L854.688 687.375L856.469 689.156C856.969 689.781 856.75 690.188 855.812 690.375V694.969L855.344 695.25C854.594 695.625 854.125 695.594 853.938 695.156V693.938H848.969V695.062L848.5 695.344C847.75 695.719 847.281 695.688 847.094 695.25V680.812L849.156 681.469H852.906L854.031 680.156L855.812 681.938ZM852.625 673.969C853.438 674.281 853.344 674.625 852.344 675V677.531H855.25L855.906 676.312L858.062 678.469C858.5 679.031 858.375 679.312 857.688 679.312C857.438 679.312 857.188 679.312 856.938 679.312C856.25 679.688 855.594 680.094 854.969 680.531C854.719 680.719 854.625 680.688 854.688 680.438L855.438 678.094H847.75C847.812 680.156 847.219 681.188 845.969 681.188C845.281 681.188 844.938 680.812 844.938 680.062C844.938 679.688 845.188 679.344 845.688 679.031C846.5 678.344 846.969 677.375 847.094 676.125C847.219 675.688 847.344 675.719 847.469 676.219C847.594 676.719 847.656 677.156 847.656 677.531H850.469V673.688L852.625 673.969ZM839.219 684.094H842.969V682.031H839.219V684.094ZM839.219 686.625H842.969V684.656H839.219V686.625ZM848.969 693.375H853.938V689.25H848.969V693.375ZM848.969 685.594H853.281V682.031H848.969V685.594Z" fill="black"/>
<path d="M358.5 770.5V715L795 629.5V629C798 507 957 520.5 972.5 604L1004.5 600V579.5L1128 576.5L1292 581V661.5L1083 664.5V686L1304.5 683.5L1306 871L499 883L497 769L358.5 770.5Z" stroke="black" stroke-width="1.5"/>
<path d="M697.999 877.521L602.499 878.975L602.498 790.98L698 789.742L697.999 877.521Z" fill="#5A5EFF" stroke="white" stroke-width="3"/>
<path d="M623.516 835.875C623.724 836.135 623.633 836.305 623.242 836.383V838.453L623.047 838.57C622.734 838.727 622.539 838.714 622.461 838.531V838.141H620.195V838.844C620.195 839.052 620.299 839.156 620.508 839.156C621.211 839.182 621.914 839.169 622.617 839.117C623.216 839.091 623.555 838.987 623.633 838.805C623.841 838.258 624.01 837.763 624.141 837.32C624.167 837.294 624.193 837.294 624.219 837.32V838.766C624.219 838.87 624.245 838.935 624.297 838.961C624.531 839.091 624.648 839.234 624.648 839.391C624.648 839.703 624.089 839.872 622.969 839.898C622.083 839.951 621.185 839.951 620.273 839.898C619.701 839.898 619.414 839.755 619.414 839.469V838.141H617.422V838.844L617.227 838.961C616.914 839.117 616.719 839.104 616.641 838.922V835.25L617.5 835.68H622.305L622.773 835.133L623.516 835.875ZM623.242 831.383C623.346 831.487 623.32 831.578 623.164 831.656H620.234V832.438H623.32L623.633 831.93L624.648 832.945C624.701 833.128 624.661 833.219 624.531 833.219H623.906L622.969 833.883C622.865 833.935 622.826 833.909 622.852 833.805L623.281 832.672H620.234V835.094L620.039 835.211C619.727 835.367 619.531 835.354 619.453 835.172V832.672H616.68C616.732 832.854 616.745 833.089 616.719 833.375C616.615 833.922 616.341 834.195 615.898 834.195C615.638 834.195 615.508 834.039 615.508 833.727C615.508 833.57 615.586 833.427 615.742 833.297C616.185 832.932 616.393 832.503 616.367 832.008C616.367 831.904 616.406 831.904 616.484 832.008C616.536 832.138 616.589 832.281 616.641 832.438H619.453V831.656H616.992V831.422H621.875L622.5 830.797L623.242 831.383ZM619.18 833.609C619.258 833.688 619.232 833.753 619.102 833.805H616.836V833.57H618.164L618.594 833.141L619.18 833.609ZM619.219 834.586C619.297 834.664 619.271 834.729 619.141 834.781H616.406V834.547H618.203L618.633 834.117L619.219 834.586ZM623.281 834.586C623.359 834.664 623.333 834.729 623.203 834.781H620.508V834.547H622.266L622.695 834.117L623.281 834.586ZM622.734 833.609C622.812 833.688 622.786 833.753 622.656 833.805H620.508V833.57H621.719L622.148 833.141L622.734 833.609ZM617.422 837.906H619.414V837.047H617.422V837.906ZM617.422 836.812H619.414V835.914H617.422V836.812ZM620.195 837.906H622.461V837.047H620.195V837.906ZM620.195 836.812H622.461V835.914H620.195V836.812ZM633.125 834.781C633.333 835.042 633.242 835.211 632.852 835.289V835.68C632.852 837.008 633.125 837.932 633.672 838.453C633.75 838.505 633.828 838.505 633.906 838.453C634.115 837.906 634.31 837.385 634.492 836.891C634.544 836.839 634.583 836.852 634.609 836.93C634.479 837.789 634.401 838.44 634.375 838.883C634.479 839.065 634.57 839.26 634.648 839.469C634.701 839.755 634.57 839.898 634.258 839.898C633.945 839.898 633.594 839.716 633.203 839.352C632.448 838.596 632.07 837.385 632.07 835.719V834.82H630.195L630.859 835.289C631.146 835.497 631.081 835.641 630.664 835.719C630.326 836.24 630.052 836.617 629.844 836.852C630.312 837.164 630.638 837.411 630.82 837.594C631.237 837.984 631.445 838.349 631.445 838.688C631.445 839 631.302 839.156 631.016 839.156C630.859 839.156 630.729 839.078 630.625 838.922C630.234 838.401 629.779 837.932 629.258 837.516C628.294 838.531 627.109 839.312 625.703 839.859C625.573 839.859 625.547 839.807 625.625 839.703C626.953 838.844 627.956 837.945 628.633 837.008C627.982 836.513 627.279 836.096 626.523 835.758C626.445 835.654 626.484 835.615 626.641 835.641C627.526 835.849 628.333 836.122 629.062 836.461C629.401 836.044 629.74 835.497 630.078 834.82H626.641V834.586H631.914L632.383 834.039L633.125 834.781ZM628.711 831.227C628.971 831.383 628.854 831.539 628.359 831.695L628.047 832.32H632.695L633.477 831.539L634.375 832.281C634.479 832.385 634.466 832.477 634.336 832.555H627.891C627.24 833.753 626.432 834.677 625.469 835.328C625.339 835.38 625.312 835.354 625.391 835.25C626.484 834.078 627.214 832.581 627.578 830.758L628.711 831.227ZM633.281 833.336C633.385 833.44 633.359 833.531 633.203 833.609H627.578V833.375H631.914L632.539 832.75L633.281 833.336ZM641.484 831.305C641.719 831.487 641.628 831.617 641.211 831.695C641.029 832.138 640.768 832.633 640.43 833.18H643.242L643.711 832.633L644.453 833.375C644.661 833.635 644.57 833.805 644.18 833.883V834.82C644.206 836.956 644.01 838.349 643.594 839C643.359 839.391 643.021 839.664 642.578 839.82C642.214 839.951 642.031 839.898 642.031 839.664V839.312C642.031 839.208 641.953 839.104 641.797 839C641.615 838.896 641.393 838.779 641.133 838.648C640.898 838.518 640.898 838.466 641.133 838.492L642.5 838.688C642.786 838.688 642.995 838.44 643.125 837.945C643.307 837.138 643.398 835.979 643.398 834.469V833.414H643.203C642.578 836.018 641.198 837.971 639.062 839.273C638.75 839.378 638.711 839.312 638.945 839.078C640.612 837.75 641.745 835.862 642.344 833.414H641.641C641.016 835.471 640.026 836.93 638.672 837.789C638.464 837.867 638.424 837.815 638.555 837.633C639.701 836.539 640.43 835.133 640.742 833.414H640.273C639.883 833.987 639.375 834.521 638.75 835.016C638.49 835.146 638.451 835.094 638.633 834.859C639.57 833.818 640.221 832.516 640.586 830.953L641.484 831.305ZM638.164 830.953C638.503 831.083 638.464 831.227 638.047 831.383V833.414H638.164L638.789 832.789L639.414 833.375C639.544 833.557 639.518 833.648 639.336 833.648H638.047V835.641L639.766 834.898C639.922 834.898 639.935 834.964 639.805 835.094L638.047 836.188V839.82L637.852 839.938C637.539 840.094 637.344 840.081 637.266 839.898V836.656L636.328 837.203C636.25 837.594 636.12 837.711 635.938 837.555L635.352 836.656L637.266 835.953V833.648H636.562C636.276 834.43 635.938 835.081 635.547 835.602C635.339 835.836 635.286 835.823 635.391 835.562C635.781 834.495 636.003 833.206 636.055 831.695L637.031 831.93C637.214 832.008 637.174 832.138 636.914 832.32C636.836 832.685 636.745 833.049 636.641 833.414H637.266V830.836L638.164 830.953ZM649.141 831.891C649.245 831.995 649.219 832.086 649.062 832.164H647.578V834.547H647.734L648.359 833.922L649.102 834.508C649.206 834.612 649.18 834.703 649.023 834.781H647.578V837.242C648.438 837.06 649.023 836.917 649.336 836.812C649.492 836.812 649.505 836.865 649.375 836.969C648.385 837.438 647.37 837.867 646.328 838.258C646.224 838.805 646.068 838.922 645.859 838.609L645.312 837.672C645.469 837.672 645.924 837.594 646.68 837.438V834.781H645.391V834.547H646.68V832.164H645.352V831.93H647.773L648.398 831.305L649.141 831.891ZM654.414 831.812C654.622 832.073 654.531 832.242 654.141 832.32V836.07L653.945 836.188C653.633 836.344 653.438 836.331 653.359 836.148V835.797H652.031V837.203H653.008L653.633 836.578L654.375 837.164C654.479 837.268 654.453 837.359 654.297 837.438H652.031V839.195H653.008L653.789 838.414L654.688 839.156C654.792 839.26 654.779 839.352 654.648 839.43H648.359V839.195H651.25V837.438H649.336V837.203H651.25V835.797H650.117V836.344L649.922 836.461C649.609 836.617 649.414 836.604 649.336 836.422V831.109L650.195 831.578H653.242L653.672 831.07L654.414 831.812ZM650.117 835.562H651.25V833.766H650.117V835.562ZM650.117 833.531H651.25V831.812H650.117V833.531ZM652.031 835.562H653.359V833.766H652.031V835.562ZM652.031 833.531H653.359V831.812H652.031V833.531ZM664.492 831.617C664.596 831.721 664.57 831.812 664.414 831.891H663.047V835.445H663.359L663.984 834.82L664.727 835.406C664.831 835.51 664.805 835.602 664.648 835.68H663.047V839.82L662.852 839.938C662.539 840.094 662.344 840.081 662.266 839.898V835.68H661.055V836.578C661.055 838.245 660.156 839.443 658.359 840.172C658.255 840.172 658.229 840.133 658.281 840.055C659.609 839.169 660.273 838.01 660.273 836.578V835.68H659.336V835.445H660.273V831.891H659.336C659.44 831.995 659.414 832.086 659.258 832.164H657.617C657.487 833.102 657.24 834.026 656.875 834.938H657.93L658.398 834.391L659.141 835.133C659.349 835.393 659.258 835.562 658.867 835.641V838.883L658.672 839C658.359 839.156 658.164 839.143 658.086 838.961V838.414H657.109V839.469L656.914 839.586C656.602 839.742 656.406 839.729 656.328 839.547V835.992C656.042 836.487 655.729 836.891 655.391 837.203C655.26 837.255 655.234 837.216 655.312 837.086C656.172 835.628 656.641 833.987 656.719 832.164H655.391V831.93H657.969L658.594 831.305L659.062 831.656H663.125L663.75 831.031L664.492 831.617ZM657.109 838.18H658.086V835.172H657.109V838.18ZM661.055 835.445H662.266V831.891H661.055V835.445ZM670.43 830.875C670.924 831.031 670.938 831.227 670.469 831.461V832.164H673.008L673.398 831.617L674.297 832.516C674.505 832.776 674.466 832.932 674.18 832.984C673.919 832.984 673.724 832.984 673.594 832.984L672.617 833.727C672.487 833.805 672.448 833.779 672.5 833.648C672.708 833.232 672.904 832.815 673.086 832.398H671.367V834.312C671.367 834.391 671.406 834.43 671.484 834.43C671.667 834.456 671.888 834.469 672.148 834.469C672.643 834.495 673.073 834.469 673.438 834.391C673.568 834.13 673.685 833.818 673.789 833.453C673.841 833.349 673.88 833.349 673.906 833.453V834.391C674.01 834.443 674.115 834.534 674.219 834.664C674.349 834.872 674.232 835.029 673.867 835.133C673.685 835.159 673.477 835.172 673.242 835.172C672.852 835.198 672.305 835.211 671.602 835.211C671.393 835.211 671.198 835.198 671.016 835.172C670.729 835.172 670.586 835.029 670.586 834.742V832.398H669.336C669.31 834.352 668.047 835.549 665.547 835.992C665.443 835.966 665.43 835.927 665.508 835.875C666.419 835.562 667.109 835.172 667.578 834.703C668.177 834.104 668.464 833.336 668.438 832.398H667.031C667.057 833.492 666.758 834.039 666.133 834.039C665.82 834.039 665.664 833.883 665.664 833.57C665.664 833.388 665.768 833.219 665.977 833.062C666.419 832.776 666.68 832.294 666.758 831.617C666.784 831.513 666.823 831.513 666.875 831.617C666.927 831.747 666.966 831.93 666.992 832.164H669.57V830.797L670.43 830.875ZM670 834.781C670.469 834.964 670.443 835.133 669.922 835.289C669.896 835.68 669.857 836.057 669.805 836.422H670.938L671.367 835.719L672.109 836.461C672.37 836.721 672.305 836.878 671.914 836.93L671.797 838.609C671.797 838.792 671.862 838.883 671.992 838.883C672.07 838.909 672.214 838.922 672.422 838.922C672.734 838.922 672.969 838.909 673.125 838.883C673.307 838.857 673.451 838.779 673.555 838.648C673.737 838.284 673.919 837.815 674.102 837.242C674.18 837.138 674.219 837.138 674.219 837.242V838.648C674.349 838.753 674.453 838.844 674.531 838.922C674.74 839.156 674.622 839.352 674.18 839.508C673.971 839.56 673.711 839.599 673.398 839.625C673.112 839.651 672.812 839.664 672.5 839.664C672.005 839.664 671.693 839.651 671.562 839.625C671.406 839.625 671.263 839.573 671.133 839.469C670.977 839.339 670.898 839.195 670.898 839.039L671.016 836.656H669.766C669.505 838.427 668.164 839.56 665.742 840.055C665.638 840.029 665.638 839.977 665.742 839.898C667.591 839.221 668.633 838.141 668.867 836.656H665.938V836.422H668.906C668.984 835.875 669.023 835.276 669.023 834.625L670 834.781ZM684.531 831.969C684.766 832.281 684.661 832.438 684.219 832.438L682.734 834.391C683.828 835.12 684.414 835.966 684.492 836.93C684.518 837.398 684.427 837.776 684.219 838.062C684.036 838.271 683.828 838.427 683.594 838.531C683.255 838.688 683.073 838.661 683.047 838.453C683.047 838.245 683.021 838.115 682.969 838.062C682.76 837.958 682.539 837.867 682.305 837.789C682.148 837.685 682.148 837.62 682.305 837.594C682.565 837.62 682.826 837.633 683.086 837.633C683.372 837.607 683.529 837.438 683.555 837.125C683.607 836.083 683.216 835.185 682.383 834.43L683.477 831.891H681.953V839.781L681.758 839.898C681.445 840.055 681.25 840.042 681.172 839.859V831.188L682.07 831.656H683.438L683.711 831.148L684.531 831.969ZM678.672 830.875C679.167 831.031 679.18 831.227 678.711 831.461V832.438H679.492L680.117 831.812L680.859 832.398C680.964 832.503 680.938 832.594 680.781 832.672H679.57L680.117 832.984C680.456 833.219 680.352 833.401 679.805 833.531L678.789 835.211H679.57L680.195 834.586L680.938 835.172C681.042 835.276 681.016 835.367 680.859 835.445H675.352V835.211H678.555C678.815 834.352 679.023 833.505 679.18 832.672H675.547V832.438H677.812V830.797L678.672 830.875ZM680.469 836.656C680.703 836.969 680.625 837.138 680.234 837.164V839.352L680.039 839.469C679.648 839.625 679.414 839.625 679.336 839.469V838.883H677.109V839.664L676.914 839.781C676.523 839.938 676.289 839.938 676.211 839.781V835.953L677.188 836.422H679.18L679.688 835.875L680.469 836.656ZM677.461 833.531C677.721 833.844 677.839 834.143 677.812 834.43C677.76 834.82 677.578 835.016 677.266 835.016C677.031 834.99 676.901 834.807 676.875 834.469C676.875 833.948 676.732 833.453 676.445 832.984C676.341 832.854 676.367 832.815 676.523 832.867C676.914 833.049 677.227 833.271 677.461 833.531ZM677.109 838.648H679.336V836.656H677.109V838.648Z" fill="white"/>
<path d="M841.483 875.521L740.534 876.977L740.534 789.541L840.516 787.763L841.483 875.521Z" fill="#D9D9D9" stroke="white" stroke-width="3"/>
<path d="M938.984 874.023L844.517 875.476L843.516 787.976L938.016 786.523L938.984 874.023Z" fill="#D9D9D9" stroke="white" stroke-width="3"/>
<path d="M1059.47 872.026L977.491 873.473L977.008 785.982L1058.02 785.017L1059.47 872.026Z" fill="#D9D9D9" stroke="white" stroke-width="3"/>
<path d="M1157.47 871.023L1062.47 872.476L1061.02 784.976L1156.02 783.523L1157.47 871.023Z" fill="#D9D9D9" stroke="white" stroke-width="3"/>
<path d="M556.484 879.538L500.975 880.961L499.523 791.142L555.516 790.516L556.484 879.538Z" fill="#95FF8F" stroke="white" stroke-width="3"/>
<path d="M1133.5 757H1084V688.472L1133.5 687.528V757Z" fill="#95FF8F" stroke="white" stroke-width="3"/>
<path d="M1052 762H982.5" stroke="black" stroke-width="1.5"/>
<path d="M1003 741H1051" stroke="black" stroke-width="1.5"/>
<path d="M1047 722.5V739" stroke="black" stroke-width="1.5"/>
<path d="M1036 722.5V739" stroke="black" stroke-width="1.5"/>
<path d="M1025 722.5V739" stroke="black" stroke-width="1.5"/>
<path d="M1014 722.5V739" stroke="black" stroke-width="1.5"/>
<path d="M1003.5 722.5V739" stroke="black" stroke-width="1.5"/>
<path d="M1047 743.5V760" stroke="black" stroke-width="1.5"/>
<path d="M1036 743.5V760" stroke="black" stroke-width="1.5"/>
<path d="M1025 743.5V760" stroke="black" stroke-width="1.5"/>
<path d="M1014 743.5V760" stroke="black" stroke-width="1.5"/>
<path d="M1003.5 743.5V760" stroke="black" stroke-width="1.5"/>
<path d="M542 726H611.5" stroke="black" stroke-width="1.5"/>
<path d="M612.5 767H542" stroke="black" stroke-width="1.5"/>
<path d="M591 747H543" stroke="black" stroke-width="1.5"/>
<path d="M547 765.5V749" stroke="black" stroke-width="1.5"/>
<path d="M558 765.5V749" stroke="black" stroke-width="1.5"/>
<path d="M569 765.5V749" stroke="black" stroke-width="1.5"/>
<path d="M580 765.5V749" stroke="black" stroke-width="1.5"/>
<path d="M590.5 765.5V749" stroke="black" stroke-width="1.5"/>
<path d="M547 744.5V728" stroke="black" stroke-width="1.5"/>
<path d="M558 744.5V728" stroke="black" stroke-width="1.5"/>
<path d="M569 744.5V728" stroke="black" stroke-width="1.5"/>
<path d="M580 744.5V728" stroke="black" stroke-width="1.5"/>
<path d="M590.5 744.5V728" stroke="black" stroke-width="1.5"/>
<path d="M1201.5 580.969V625H1180.5V580.531L1201.5 580.969Z" fill="#95FF8F" stroke="white" stroke-width="3"/>
</g>
<defs>
<clipPath id="clip0_1_4">
<rect width="1440" height="1024" fill="white"/>
</clipPath>
</defs>
</svg>
