<svg width="1440" height="1024" viewBox="0 0 1440 1024" fill="none" xmlns="http://www.w3.org/2000/svg">
<rect x="0.5" y="0.5" width="1439" height="1023" fill="white"/>
<rect x="0.5" y="0.5" width="1439" height="1023" stroke="#E3E3E3"/>
<path d="M482.5 559.5L358 563V548V520.5V326.5H537V361H551M521 558L537 557V380H551" stroke="black" stroke-width="1.5"/>
<path d="M362 558L425 556.82V486H362V558Z" fill="#D9D9D9"/>
<path d="M372.411 514.321C372.622 514.285 372.825 514.266 373.02 514.262C373.215 514.258 373.401 514.278 373.577 514.321C373.94 514.41 374.213 514.541 374.397 514.713C374.584 514.881 374.678 515.059 374.678 515.246C374.678 515.309 374.661 515.369 374.625 515.428C374.59 515.483 374.547 515.533 374.497 515.58C374.45 515.627 374.405 515.684 374.362 515.75C374.323 515.813 374.282 515.883 374.239 515.961C374.454 515.942 374.661 515.922 374.86 515.903C375.063 515.879 375.258 515.86 375.446 515.844C375.625 515.824 375.776 515.787 375.897 515.733C376.022 515.678 376.127 515.615 376.213 515.545C376.299 515.471 376.375 515.42 376.442 515.393C376.512 515.365 376.569 515.352 376.612 515.352C376.678 515.352 376.749 515.365 376.823 515.393C376.901 515.416 376.969 515.455 377.028 515.51C377.141 515.608 377.258 515.725 377.379 515.862C377.5 515.994 377.61 516.127 377.708 516.26C377.809 516.393 377.883 516.51 377.93 516.612C377.973 516.701 378.002 516.787 378.018 516.869C378.038 516.951 378.047 517.03 378.047 517.104C378.047 517.151 378.034 517.205 378.006 517.268C377.979 517.33 377.942 517.379 377.895 517.414C377.786 517.492 377.696 517.569 377.625 517.643C377.559 517.713 377.508 517.793 377.473 517.883C377.336 518.227 377.186 518.578 377.022 518.938C376.858 519.293 376.668 519.656 376.454 520.028C376.547 520.102 376.637 520.176 376.723 520.25C376.809 520.324 376.887 520.401 376.958 520.479C377.083 520.612 377.184 520.752 377.262 520.901C377.34 521.045 377.379 521.219 377.379 521.422C377.379 521.574 377.35 521.721 377.292 521.862C377.233 522.002 377.153 522.121 377.051 522.219C376.926 522.328 376.819 522.401 376.729 522.436C376.643 522.467 376.551 522.483 376.454 522.483C376.286 522.483 376.145 522.43 376.032 522.324C375.918 522.215 375.799 522.071 375.674 521.891C375.596 521.778 375.504 521.656 375.399 521.528C375.098 521.875 374.776 522.178 374.432 522.436C374.092 522.694 373.713 522.94 373.295 523.174C373.061 523.307 372.807 523.434 372.534 523.555C372.264 523.676 371.987 523.787 371.702 523.889C371.42 523.994 371.143 524.088 370.87 524.17C370.6 524.256 370.35 524.328 370.12 524.387L369.551 523.619C369.887 523.518 370.233 523.393 370.588 523.244C370.948 523.096 371.295 522.93 371.631 522.746C371.967 522.559 372.266 522.365 372.528 522.166C372.895 521.889 373.221 521.614 373.506 521.34C373.792 521.063 374.059 520.75 374.309 520.403C374.235 520.332 374.159 520.266 374.081 520.203C374.002 520.141 373.926 520.08 373.852 520.022C373.583 519.815 373.292 519.615 372.979 519.424C372.67 519.229 372.354 519.059 372.03 518.914C371.69 519.196 371.333 519.449 370.958 519.676C370.583 519.903 370.223 520.098 369.879 520.262L369.276 519.647C369.467 519.541 369.663 519.414 369.862 519.266C370.061 519.114 370.256 518.953 370.448 518.785C370.639 518.614 370.817 518.442 370.981 518.27C371.149 518.098 371.293 517.934 371.415 517.778C371.54 517.617 371.663 517.442 371.784 517.25C371.909 517.055 372.024 516.856 372.129 516.653C372.239 516.449 372.333 516.254 372.411 516.067C372.493 515.875 372.553 515.705 372.592 515.557C372.647 515.35 372.641 515.186 372.575 515.065C372.508 514.94 372.336 514.871 372.059 514.86L372.411 514.321ZM375.915 516.817L373.647 517.016C373.514 517.223 373.37 517.434 373.213 517.649C373.057 517.864 372.897 518.063 372.733 518.246C373.553 518.492 374.329 518.803 375.059 519.178C375.258 518.791 375.428 518.399 375.569 518C375.713 517.598 375.829 517.203 375.915 516.817ZM384.891 514.092C385.329 514.092 385.715 514.133 386.051 514.215C386.391 514.297 386.639 514.405 386.795 514.537C386.885 514.612 386.956 514.692 387.006 514.778C387.057 514.86 387.088 514.94 387.1 515.018C387.112 515.092 387.106 515.164 387.083 515.235C387.063 515.305 387.032 515.367 386.989 515.422C386.899 515.543 386.831 515.668 386.784 515.797C386.741 515.922 386.713 516.045 386.702 516.166C386.694 516.248 386.684 516.334 386.672 516.424C386.661 516.514 386.649 516.608 386.637 516.705C386.887 516.686 387.137 516.67 387.387 516.658C387.637 516.643 387.881 516.631 388.12 516.623C388.268 516.615 388.399 516.584 388.512 516.53C388.629 516.475 388.739 516.403 388.84 516.313C388.911 516.25 388.977 516.203 389.04 516.172C389.106 516.137 389.174 516.119 389.245 516.119C389.323 516.119 389.403 516.139 389.485 516.178C389.567 516.217 389.631 516.258 389.678 516.301C389.768 516.379 389.866 516.473 389.971 516.582C390.081 516.688 390.184 516.799 390.282 516.916C390.379 517.03 390.458 517.137 390.516 517.239C390.567 517.313 390.602 517.387 390.622 517.461C390.641 517.531 390.647 517.596 390.639 517.655C390.635 517.721 390.618 517.78 390.586 517.83C390.555 517.881 390.512 517.928 390.458 517.971C390.368 518.033 390.299 518.114 390.252 518.211C390.209 518.309 390.182 518.42 390.17 518.545C390.143 518.823 390.108 519.117 390.065 519.43C390.022 519.739 389.971 520.049 389.913 520.362C389.858 520.67 389.799 520.969 389.737 521.258C389.674 521.543 389.61 521.805 389.543 522.043C389.477 522.278 389.411 522.471 389.344 522.623C389.278 522.78 389.192 522.942 389.086 523.11C388.985 523.278 388.874 523.416 388.752 523.526C388.596 523.67 388.407 523.781 388.184 523.86C387.965 523.942 387.758 523.983 387.563 523.983C387.434 523.983 387.309 523.973 387.188 523.953C387.071 523.934 386.975 523.891 386.901 523.824C386.831 523.754 386.799 523.651 386.807 523.514C386.827 523.158 386.747 522.862 386.567 522.623C386.391 522.381 386.157 522.174 385.864 522.002L386.116 521.305C386.307 521.399 386.489 521.483 386.661 521.557C386.836 521.631 386.989 521.694 387.118 521.744C387.25 521.791 387.344 521.824 387.399 521.844C387.52 521.883 387.616 521.891 387.686 521.867C387.756 521.844 387.817 521.776 387.868 521.662C387.938 521.49 388.01 521.256 388.084 520.959C388.163 520.662 388.237 520.33 388.307 519.963C388.377 519.592 388.44 519.207 388.495 518.809C388.553 518.41 388.6 518.022 388.635 517.643C388.276 517.67 387.911 517.701 387.54 517.737C387.168 517.768 386.797 517.801 386.426 517.836C386.368 518.106 386.303 518.373 386.233 518.639C386.167 518.901 386.098 519.145 386.028 519.371C385.883 519.844 385.717 520.274 385.53 520.66C385.342 521.043 385.124 521.399 384.874 521.727C384.627 522.055 384.34 522.373 384.012 522.682C383.778 522.905 383.518 523.115 383.233 523.315C382.948 523.514 382.659 523.696 382.366 523.86C382.073 524.024 381.793 524.168 381.528 524.293L380.907 523.619C381.18 523.475 381.458 523.301 381.739 523.098C382.02 522.895 382.29 522.676 382.547 522.442C382.809 522.203 383.042 521.961 383.245 521.715C383.565 521.328 383.834 520.879 384.053 520.367C384.276 519.856 384.459 519.324 384.604 518.774C384.635 518.656 384.665 518.535 384.692 518.41C384.719 518.285 384.747 518.156 384.774 518.024C384.766 518.028 384.756 518.03 384.745 518.03C384.506 518.057 384.276 518.098 384.053 518.153C383.834 518.203 383.668 518.25 383.555 518.293C383.43 518.34 383.317 518.383 383.215 518.422C383.118 518.457 383.02 518.475 382.922 518.475C382.809 518.475 382.69 518.449 382.565 518.399C382.44 518.348 382.323 518.272 382.213 518.17C382.12 518.08 382.034 517.965 381.956 517.824C381.881 517.684 381.823 517.53 381.78 517.362C381.737 517.194 381.717 517.028 381.721 516.864L382.213 516.418C382.288 516.621 382.409 516.76 382.577 516.834C382.745 516.908 382.959 516.946 383.221 516.946C383.292 516.946 383.411 516.942 383.579 516.934C383.75 516.922 383.956 516.906 384.194 516.887C384.436 516.867 384.696 516.848 384.973 516.828C385.004 516.594 385.034 516.364 385.061 516.137C385.088 515.906 385.112 515.69 385.131 515.487C385.143 515.354 385.141 515.239 385.125 515.141C385.114 515.043 385.083 514.961 385.032 514.895C384.985 514.828 384.92 514.776 384.838 514.737C384.76 514.694 384.661 514.658 384.54 514.631L384.891 514.092ZM396.182 514.971C396.608 515.108 396.995 515.276 397.342 515.475C397.694 515.67 397.983 515.908 398.209 516.19C398.377 516.393 398.506 516.596 398.596 516.799C398.69 516.998 398.737 517.237 398.737 517.514C398.737 517.733 398.706 517.906 398.643 518.035C398.584 518.164 398.512 518.278 398.426 518.375C398.301 518.52 398.167 518.619 398.022 518.674C397.881 518.725 397.772 518.75 397.694 518.75C397.581 518.75 397.483 518.74 397.401 518.721C397.319 518.698 397.245 518.655 397.178 518.592C397.088 518.506 397.02 518.41 396.973 518.305C396.93 518.199 396.903 518.092 396.891 517.983C396.856 517.619 396.786 517.276 396.68 516.951C396.575 516.627 396.438 516.34 396.27 516.09C396.106 515.836 395.913 515.639 395.69 515.498L396.182 514.971ZM400.407 515.03C400.797 515.018 401.143 515.067 401.444 515.176C401.749 515.285 401.991 515.408 402.17 515.545C402.393 515.713 402.545 515.879 402.627 516.043C402.713 516.207 402.756 516.358 402.756 516.494C402.756 516.592 402.735 516.692 402.692 516.793C402.649 516.895 402.59 516.979 402.516 517.045C402.461 517.096 402.407 517.17 402.352 517.268C402.297 517.362 402.247 517.461 402.2 517.567C402.153 517.672 402.116 517.77 402.088 517.86C401.987 518.184 401.85 518.549 401.678 518.955C401.506 519.358 401.311 519.76 401.092 520.162C400.803 520.678 400.461 521.164 400.067 521.621C399.676 522.078 399.202 522.496 398.643 522.875C398.182 523.188 397.688 523.469 397.161 523.719C396.637 523.965 396.086 524.18 395.508 524.364L394.981 523.608C395.54 523.389 396.053 523.137 396.522 522.852C396.991 522.563 397.42 522.25 397.811 521.914C398.245 521.543 398.62 521.133 398.936 520.684C399.256 520.235 399.534 519.774 399.768 519.301C399.897 519.039 400.018 518.76 400.131 518.463C400.245 518.166 400.342 517.867 400.424 517.567C400.506 517.262 400.565 516.971 400.6 516.694C400.612 516.604 400.622 516.51 400.629 516.412C400.641 516.311 400.645 516.217 400.641 516.131C400.637 516.041 400.62 515.973 400.588 515.926C400.534 515.848 400.459 515.78 400.366 515.721C400.276 515.658 400.176 515.608 400.067 515.569L400.407 515.03ZM393.446 515.926C393.836 516.035 394.209 516.201 394.565 516.424C394.92 516.643 395.215 516.893 395.45 517.174C395.61 517.365 395.723 517.563 395.79 517.766C395.86 517.965 395.895 518.16 395.895 518.352C395.895 518.485 395.862 518.621 395.795 518.762C395.729 518.899 395.645 519.018 395.543 519.119C395.387 519.276 395.237 519.387 395.092 519.453C394.952 519.52 394.815 519.553 394.682 519.553C394.592 519.553 394.499 519.531 394.401 519.489C394.307 519.446 394.233 519.379 394.178 519.289C394.112 519.18 394.061 519.069 394.026 518.955C393.995 518.842 393.973 518.694 393.961 518.51C393.934 518.069 393.838 517.666 393.674 517.303C393.51 516.936 393.278 516.645 392.977 516.43L393.446 515.926ZM413.292 518.399C413.413 518.399 413.532 518.41 413.649 518.434C413.766 518.453 413.875 518.49 413.977 518.545C414.075 518.592 414.178 518.658 414.288 518.744C414.401 518.83 414.506 518.912 414.604 518.99C414.694 519.061 414.75 519.139 414.774 519.225C414.801 519.311 414.815 519.387 414.815 519.453C414.815 519.528 414.795 519.594 414.756 519.653C414.717 519.711 414.67 519.762 414.616 519.805C414.53 519.867 414.428 519.912 414.311 519.94C414.198 519.963 414.04 519.975 413.836 519.975C413.649 519.975 413.436 519.987 413.198 520.01C412.959 520.033 412.709 520.067 412.448 520.11C412.19 520.153 411.932 520.203 411.674 520.262C411.577 520.285 411.473 520.309 411.364 520.332C411.254 520.356 411.141 520.383 411.024 520.414C411.102 520.754 411.178 521.071 411.252 521.364C411.327 521.653 411.391 521.901 411.446 522.108C411.489 522.264 411.534 522.418 411.581 522.571C411.631 522.723 411.682 522.873 411.733 523.022C411.776 523.135 411.807 523.254 411.827 523.379C411.846 523.5 411.856 523.596 411.856 523.666C411.856 523.776 411.833 523.887 411.786 524C411.739 524.117 411.686 524.219 411.627 524.305C411.538 524.426 411.44 524.514 411.334 524.569C411.233 524.623 411.133 524.651 411.036 524.651C410.95 524.651 410.854 524.629 410.749 524.586C410.647 524.543 410.549 524.49 410.456 524.428C410.366 524.369 410.292 524.313 410.233 524.258C410.135 524.156 410.059 524.057 410.004 523.959C409.954 523.862 409.915 523.74 409.887 523.596C409.864 523.451 409.844 523.26 409.829 523.022C409.821 522.916 409.799 522.754 409.764 522.535C409.733 522.317 409.692 522.059 409.641 521.762C409.594 521.465 409.54 521.147 409.477 520.807C409.239 520.869 409.002 520.936 408.768 521.006C408.538 521.073 408.315 521.139 408.1 521.205C407.909 521.268 407.729 521.334 407.561 521.405C407.397 521.471 407.264 521.533 407.163 521.592C407.042 521.666 406.93 521.723 406.829 521.762C406.731 521.801 406.633 521.824 406.536 521.832C406.45 521.836 406.362 521.828 406.272 521.809C406.186 521.789 406.094 521.752 405.997 521.698C405.813 521.592 405.649 521.438 405.504 521.235C405.364 521.028 405.256 520.787 405.182 520.514L405.604 519.975C405.741 520.205 405.975 520.321 406.307 520.321C406.471 520.321 406.672 520.303 406.911 520.268C407.149 520.233 407.444 520.17 407.795 520.08C408.03 520.022 408.272 519.961 408.522 519.899C408.772 519.832 409.022 519.768 409.272 519.705L409.202 519.319C409.178 519.19 409.155 519.063 409.131 518.938C409.061 518.578 408.997 518.25 408.938 517.953C408.762 518 408.592 518.049 408.428 518.1C408.264 518.147 408.11 518.196 407.965 518.246C407.821 518.293 407.686 518.346 407.561 518.405C407.44 518.459 407.331 518.518 407.233 518.58C407.159 518.627 407.079 518.666 406.993 518.698C406.907 518.725 406.819 518.739 406.729 518.739C406.643 518.739 406.555 518.729 406.465 518.709C406.379 518.686 406.292 518.651 406.202 518.604C406.018 518.506 405.864 518.364 405.739 518.176C405.614 517.989 405.52 517.772 405.458 517.526L405.879 517.033C405.926 517.108 405.999 517.176 406.096 517.239C406.198 517.301 406.329 517.332 406.489 517.332C406.637 517.332 406.821 517.319 407.04 517.291C407.258 517.26 407.524 517.201 407.836 517.115C407.977 517.076 408.122 517.037 408.27 516.998C408.418 516.959 408.569 516.92 408.721 516.881C408.667 516.612 408.616 516.371 408.569 516.16C408.526 515.946 408.489 515.76 408.458 515.604C408.411 515.358 408.317 515.184 408.176 515.082C408.036 514.977 407.842 514.951 407.596 515.006L407.76 514.403C407.932 514.324 408.12 514.262 408.323 514.215C408.53 514.164 408.723 514.139 408.903 514.139C409.149 514.139 409.36 514.17 409.536 514.233C409.715 514.295 409.856 514.377 409.958 514.479C410.004 514.526 410.047 514.576 410.086 514.631C410.129 514.682 410.151 514.746 410.151 514.824C410.151 514.864 410.147 514.914 410.139 514.977C410.135 515.035 410.124 515.1 410.104 515.17C410.049 515.358 410.049 515.598 410.104 515.891C410.116 515.961 410.131 516.049 410.151 516.155C410.17 516.26 410.194 516.385 410.221 516.53C410.28 516.514 410.338 516.5 410.397 516.489C410.456 516.477 410.512 516.465 410.567 516.453C410.774 516.41 410.956 516.35 411.112 516.272C411.272 516.19 411.403 516.112 411.504 516.037C411.594 515.963 411.7 515.897 411.821 515.838C411.942 515.78 412.065 515.75 412.19 515.75C412.292 515.75 412.393 515.764 412.495 515.791C412.596 515.815 412.694 515.844 412.788 515.879C412.877 515.914 412.963 515.957 413.045 516.008C413.131 516.059 413.206 516.112 413.268 516.166C413.381 516.256 413.458 516.346 413.497 516.436C413.536 516.526 413.555 516.6 413.555 516.658C413.555 516.733 413.543 516.795 413.52 516.846C413.497 516.897 413.458 516.955 413.403 517.022C413.325 517.108 413.213 517.166 413.069 517.198C412.928 517.225 412.731 517.239 412.477 517.239C412.25 517.239 412.016 517.26 411.774 517.303C411.536 517.346 411.29 517.395 411.036 517.449C410.938 517.469 410.838 517.49 410.737 517.514L410.432 517.584C410.459 517.729 410.489 517.881 410.52 518.041C410.551 518.198 410.584 518.365 410.62 518.545C410.647 518.674 410.672 518.803 410.696 518.932C410.723 519.061 410.75 519.19 410.778 519.319C410.938 519.276 411.092 519.237 411.241 519.201C411.393 519.162 411.542 519.127 411.686 519.096C411.866 519.053 412.04 518.998 412.208 518.932C412.379 518.862 412.545 518.76 412.706 518.627C412.772 518.573 412.862 518.522 412.975 518.475C413.088 518.424 413.194 518.399 413.292 518.399ZM384.088 534.119V534.758C384.268 534.739 384.444 534.719 384.616 534.699C384.792 534.68 384.967 534.662 385.143 534.647C385.362 534.623 385.565 534.602 385.752 534.582C385.944 534.559 386.168 534.53 386.426 534.494C386.633 534.092 386.805 533.66 386.942 533.199C387.079 532.739 387.184 532.233 387.258 531.682C387.333 531.127 387.379 530.512 387.399 529.836H386.497L386.198 528.887H387.411V525.682C387.899 525.713 388.286 525.75 388.571 525.793C388.86 525.832 389.067 525.877 389.192 525.928C389.317 525.979 389.379 526.041 389.379 526.115C389.379 526.178 389.34 526.244 389.262 526.315C389.184 526.385 389.059 526.471 388.887 526.573V528.805H389.713L390.329 528.084C390.684 528.381 390.958 528.619 391.149 528.799C391.344 528.979 391.479 529.121 391.553 529.227C391.631 529.328 391.67 529.416 391.67 529.49C391.67 529.549 391.639 529.604 391.577 529.655L391.237 529.942C391.241 531.016 391.229 531.936 391.202 532.701C391.178 533.463 391.137 534.092 391.079 534.588C391.024 535.084 390.95 535.469 390.856 535.742C390.711 536.16 390.463 536.469 390.112 536.668C389.76 536.867 389.299 536.957 388.729 536.938C388.737 536.778 388.727 536.643 388.7 536.533C388.672 536.424 388.62 536.33 388.542 536.252C388.467 536.174 388.356 536.104 388.208 536.041C388.063 535.983 387.874 535.922 387.639 535.86V535.092C387.85 535.123 388.016 535.149 388.137 535.168C388.262 535.184 388.36 535.196 388.43 535.203C388.5 535.207 388.559 535.211 388.606 535.215C388.657 535.215 388.713 535.215 388.776 535.215C389.018 535.215 389.194 535.172 389.303 535.086C389.417 534.996 389.497 534.838 389.543 534.612C389.59 534.416 389.627 534.199 389.655 533.961C389.686 533.719 389.711 533.436 389.731 533.112C389.75 532.787 389.764 532.405 389.772 531.963C389.784 531.522 389.792 531.004 389.795 530.41V529.754H388.875C388.852 530.625 388.776 531.414 388.647 532.121C388.518 532.824 388.325 533.465 388.067 534.043C387.813 534.621 387.487 535.155 387.088 535.643C386.694 536.131 386.217 536.596 385.659 537.037L384.997 536.434C385.141 536.281 385.264 536.149 385.366 536.035C385.467 535.926 385.561 535.817 385.647 535.707C385.733 535.598 385.825 535.473 385.922 535.332C385.528 535.434 385.12 535.533 384.698 535.631C384.28 535.729 383.864 535.819 383.45 535.901C383.04 535.987 382.645 536.061 382.266 536.123C381.891 536.19 381.549 536.242 381.241 536.281C381.17 536.438 381.108 536.551 381.053 536.621C381.002 536.692 380.95 536.727 380.895 536.727C380.786 536.727 380.676 536.59 380.567 536.317C380.458 536.047 380.331 535.604 380.186 534.987C380.358 534.979 380.508 534.973 380.637 534.969C380.766 534.965 380.893 534.961 381.018 534.957C381.147 534.949 381.288 534.942 381.44 534.934C381.596 534.922 381.78 534.91 381.991 534.899C382.202 534.887 382.459 534.871 382.764 534.852V534.119H380.76L380.508 533.34H382.764V532.537H382.032V532.883H380.749V528.922C380.854 528.942 380.942 528.961 381.012 528.981C381.086 528.996 381.17 529.016 381.264 529.039C381.362 529.059 381.495 529.088 381.663 529.127L381.78 529.162L382.008 529.215H382.764V528.6H380.368L380.163 527.809H382.764V527.205C382.518 527.221 382.284 527.235 382.061 527.246C381.842 527.258 381.625 527.268 381.411 527.276C381.196 527.283 380.967 527.289 380.725 527.293L380.45 526.573C380.895 526.537 381.336 526.492 381.774 526.438C382.215 526.379 382.637 526.313 383.04 526.239C383.442 526.16 383.807 526.078 384.135 525.992C384.463 525.906 384.739 525.817 384.961 525.723C385.344 526.02 385.62 526.254 385.788 526.426C385.956 526.594 386.04 526.727 386.04 526.824C386.04 526.91 385.944 526.953 385.752 526.953C385.713 526.953 385.667 526.951 385.612 526.948C385.557 526.94 385.485 526.93 385.395 526.918C385.266 526.942 385.147 526.963 385.038 526.983C384.928 526.998 384.801 527.016 384.657 527.035C384.512 527.051 384.323 527.073 384.088 527.1V527.809H384.938L385.647 527.17C385.764 527.252 385.872 527.334 385.969 527.416C386.067 527.494 386.172 527.586 386.286 527.692C386.403 527.793 386.542 527.92 386.702 528.073L386.415 528.6H384.088V529.215H384.856L385.36 528.723C385.641 528.93 385.858 529.096 386.01 529.221C386.167 529.346 386.274 529.446 386.333 529.52C386.395 529.594 386.426 529.66 386.426 529.719C386.426 529.778 386.403 529.824 386.356 529.86L386.127 530.053V532.789H384.915V532.537H384.088V533.34H384.879L385.442 532.824C385.555 532.903 385.653 532.971 385.735 533.03C385.817 533.088 385.891 533.147 385.958 533.205C386.028 533.264 386.102 533.328 386.18 533.399C386.258 533.469 386.352 533.553 386.461 533.651L386.186 534.119H384.088ZM384.915 530.533V529.86H384.088V530.533H384.915ZM382.764 530.533V529.86H382.032V530.533H382.764ZM384.915 531.864V531.166H384.088V531.864H384.915ZM382.764 531.864V531.166H382.032V531.864H382.764ZM399.458 534.201H396.387V534.781H395.04V528.406C395.172 528.434 395.303 528.465 395.432 528.5C395.565 528.531 395.713 528.569 395.877 528.612C396.045 528.655 396.247 528.711 396.481 528.781H397.225V527.522H392.555L392.256 526.561H401.315L402.252 525.576C402.463 525.733 402.645 525.873 402.797 525.998C402.95 526.123 403.094 526.254 403.231 526.391C403.372 526.524 403.526 526.68 403.694 526.86L403.36 527.522H398.567V528.781H399.399L399.938 528.166C400.274 528.424 400.534 528.631 400.717 528.787C400.905 528.944 401.036 529.067 401.11 529.156C401.184 529.246 401.221 529.324 401.221 529.391C401.221 529.453 401.19 529.51 401.127 529.561L400.788 529.86V534.735H399.458V534.201ZM394.325 535.25H401.555V528.758C402.032 528.797 402.413 528.84 402.698 528.887C402.987 528.93 403.194 528.981 403.319 529.039C403.448 529.094 403.512 529.16 403.512 529.239C403.512 529.297 403.477 529.362 403.407 529.432C403.34 529.498 403.219 529.584 403.043 529.69V536.844H401.555V536.27H394.325V536.903H392.836V528.828C393.321 528.86 393.704 528.895 393.985 528.934C394.266 528.969 394.467 529.012 394.588 529.063C394.713 529.114 394.776 529.176 394.776 529.25C394.776 529.301 394.741 529.362 394.67 529.432C394.6 529.498 394.485 529.584 394.325 529.69V535.25ZM399.458 530.979V529.643H398.52V530.979H399.458ZM397.272 530.979V529.643H396.387V530.979H397.272ZM399.458 533.305V531.817H398.52V533.305H399.458ZM397.272 533.305V531.817H396.387V533.305H397.272Z" fill="black"/>
<path d="M362 484H425V412H362V484Z" fill="#D9D9D9"/>
<path d="M375.348 444.698V445.471H373.848V444.698H371.926V445.471H370.45V444.698H367.555L367.356 443.789H370.45V442.623C370.934 442.643 371.315 442.666 371.592 442.694C371.874 442.721 372.073 442.756 372.19 442.799C372.311 442.838 372.372 442.887 372.372 442.946C372.372 442.996 372.336 443.053 372.266 443.115C372.196 443.178 372.083 443.254 371.926 443.344V443.789H373.848V442.612C374.325 442.639 374.702 442.67 374.979 442.705C375.26 442.737 375.461 442.774 375.583 442.817C375.704 442.86 375.764 442.912 375.764 442.975C375.764 443.022 375.731 443.074 375.665 443.133C375.602 443.188 375.497 443.258 375.348 443.344V443.789H376.584L377.311 442.934C377.471 443.063 377.614 443.184 377.739 443.297C377.868 443.406 377.997 443.526 378.125 443.655C378.258 443.783 378.409 443.94 378.577 444.123L378.225 444.698H375.348ZM376.461 446.608V447.569H377.036L377.686 446.86C377.803 446.957 377.903 447.043 377.985 447.117C378.071 447.192 378.149 447.264 378.219 447.334C378.293 447.401 378.37 447.475 378.448 447.557C378.526 447.635 378.616 447.731 378.717 447.844L378.454 448.418H376.461V449.449H376.725L377.299 448.735C377.409 448.824 377.495 448.899 377.557 448.957C377.62 449.012 377.674 449.063 377.721 449.11C377.772 449.153 377.829 449.207 377.891 449.274C377.961 449.348 378.028 449.418 378.09 449.485C378.153 449.551 378.209 449.612 378.26 449.666L377.973 450.293H373.643V451.131H376.543L377.299 450.387C377.459 450.512 377.594 450.619 377.704 450.709C377.817 450.799 377.917 450.881 378.002 450.955C378.088 451.026 378.174 451.1 378.26 451.178C378.346 451.252 378.442 451.34 378.547 451.442L378.225 452.057H373.643V454.002H372.131V452.057H367.608L367.344 451.131H372.131V450.293H368L367.737 449.449H369.307V448.418H367.379L367.151 447.569H369.307V446.608H368.1L367.86 445.781H376.233L376.895 445.073C377.008 445.155 377.104 445.225 377.182 445.283C377.26 445.342 377.336 445.405 377.411 445.471C377.489 445.533 377.577 445.61 377.674 445.699C377.776 445.785 377.903 445.897 378.055 446.033L377.768 446.608H376.461ZM375.032 446.608H373.643V447.569H375.032V446.608ZM372.131 446.608H370.749V447.569H372.131V446.608ZM375.032 448.418H373.643V449.449H375.032V448.418ZM372.131 448.418H370.749V449.449H372.131V448.418ZM387.167 445.442L387.155 445.483L387.108 445.541C387.022 445.662 386.932 445.785 386.838 445.91C386.745 446.031 386.649 446.149 386.551 446.262H387.958L388.596 445.67C388.952 445.908 389.225 446.102 389.417 446.25C389.612 446.395 389.747 446.51 389.821 446.596C389.899 446.682 389.938 446.758 389.938 446.824C389.938 446.887 389.903 446.951 389.833 447.018L389.504 447.293V451.682H388.016V451.219H385.081V451.694H383.616V445.887C383.823 445.938 384.03 445.987 384.237 446.033C384.448 446.08 384.661 446.131 384.875 446.186L385.127 446.262H385.555C385.583 446.117 385.604 445.981 385.62 445.852C385.639 445.719 385.655 445.582 385.667 445.442H383.088L382.825 444.592H384.577L384.547 444.457C384.524 444.293 384.479 444.127 384.413 443.959C384.35 443.787 384.27 443.625 384.172 443.473C384.079 443.317 383.973 443.186 383.856 443.08L384.407 442.565C385 442.823 385.432 443.061 385.702 443.28C385.975 443.498 386.112 443.711 386.112 443.918C386.112 444.137 385.956 444.362 385.643 444.592H386.833C386.965 444.287 387.077 443.963 387.167 443.619C387.256 443.276 387.329 442.908 387.383 442.518C387.868 442.639 388.254 442.748 388.543 442.846C388.836 442.94 389.047 443.026 389.176 443.104C389.309 443.178 389.375 443.25 389.375 443.321C389.375 443.371 389.331 443.424 389.241 443.479C389.155 443.53 389.002 443.588 388.784 443.655C388.67 443.791 388.543 443.934 388.403 444.082C388.266 444.227 388.094 444.397 387.887 444.592H388.725L389.422 443.801C389.571 443.91 389.704 444.016 389.821 444.117C389.942 444.219 390.059 444.326 390.172 444.44C390.286 444.553 390.407 444.684 390.536 444.832L390.225 445.442H387.167ZM379.643 443.608L380.147 442.957C380.713 443.176 381.172 443.387 381.524 443.59C381.879 443.793 382.139 443.994 382.303 444.194C382.471 444.393 382.555 444.602 382.555 444.821C382.555 444.946 382.518 445.08 382.444 445.225C382.374 445.369 382.282 445.506 382.168 445.635C382.059 445.76 381.942 445.864 381.817 445.946C381.692 446.028 381.575 446.069 381.465 446.069C381.282 446.069 381.141 445.94 381.043 445.682C380.754 444.846 380.288 444.155 379.643 443.608ZM390.167 453.569H387.635C386.893 453.573 386.249 453.561 385.702 453.533C385.159 453.51 384.688 453.461 384.29 453.387C383.891 453.317 383.547 453.217 383.258 453.088C382.973 452.963 382.717 452.803 382.491 452.608C382.268 452.412 382.055 452.176 381.852 451.899C381.7 452.086 381.555 452.256 381.418 452.408C381.286 452.557 381.145 452.701 380.997 452.842C380.852 452.983 380.688 453.133 380.504 453.293C380.454 453.508 380.403 453.658 380.352 453.744C380.305 453.834 380.249 453.879 380.182 453.879C380.073 453.879 379.942 453.735 379.79 453.446C379.637 453.16 379.44 452.698 379.198 452.057C379.452 451.971 379.672 451.893 379.86 451.823C380.051 451.752 380.233 451.68 380.405 451.606C380.577 451.528 380.758 451.442 380.95 451.348V448.453H379.555L379.303 447.457H380.868L381.524 446.701C381.911 446.994 382.211 447.233 382.426 447.416C382.641 447.596 382.792 447.742 382.877 447.856C382.967 447.965 383.012 448.061 383.012 448.143C383.012 448.237 382.961 448.317 382.86 448.383L382.45 448.67V451.178C382.614 451.365 382.801 451.524 383.012 451.653C383.223 451.778 383.477 451.879 383.774 451.957C384.071 452.031 384.428 452.084 384.846 452.115C385.264 452.147 385.762 452.162 386.34 452.162C386.946 452.162 387.602 452.143 388.309 452.104C389.016 452.061 389.799 451.996 390.659 451.91C390.569 452.117 390.493 452.305 390.43 452.473C390.372 452.641 390.321 452.809 390.278 452.977C390.239 453.149 390.202 453.346 390.167 453.569ZM388.016 447.639V446.994H385.081V447.639H388.016ZM388.016 449.022V448.324H385.081V449.022H388.016ZM388.016 450.457V449.719H385.081V450.457H388.016ZM393.6 444.487V442.623C394.092 442.658 394.481 442.696 394.766 442.735C395.055 442.774 395.26 442.819 395.381 442.869C395.502 442.916 395.563 442.975 395.563 443.045C395.563 443.096 395.528 443.156 395.458 443.227C395.387 443.293 395.268 443.377 395.1 443.479V444.487H395.926L396.577 443.666C396.741 443.815 396.877 443.944 396.987 444.053C397.096 444.162 397.2 444.274 397.297 444.387C397.395 444.5 397.506 444.637 397.631 444.797L397.333 445.383H395.481C396.004 445.543 396.401 445.694 396.67 445.834C396.944 445.975 397.081 446.092 397.081 446.186C397.081 446.248 397.036 446.305 396.946 446.356C396.86 446.403 396.719 446.448 396.524 446.49C396.411 446.67 396.278 446.862 396.125 447.065C395.973 447.264 395.795 447.481 395.592 447.715H396.325L396.911 446.942C397.032 447.067 397.131 447.174 397.209 447.264C397.292 447.35 397.364 447.432 397.426 447.51C397.493 447.584 397.559 447.664 397.625 447.75C397.696 447.832 397.778 447.932 397.872 448.049L397.543 448.67H391.344L391.081 447.715H392.627C392.553 447.641 392.516 447.516 392.516 447.34C392.512 447.059 392.469 446.781 392.387 446.508C392.309 446.231 392.196 445.989 392.047 445.781L392.581 445.395C393.514 446.024 393.981 446.561 393.981 447.006C393.981 447.311 393.756 447.547 393.307 447.715H394.667C394.803 447.344 394.924 446.963 395.03 446.573C395.135 446.178 395.213 445.811 395.264 445.471L395.276 445.383H391.52L391.268 444.487H393.6ZM402.524 444.557L402.143 444.797C401.999 445.227 401.829 445.656 401.633 446.086C401.442 446.516 401.231 446.922 401 447.305C402.024 448.16 402.536 449.149 402.536 450.27C402.536 451.918 401.836 452.742 400.438 452.742C400.442 452.528 400.413 452.354 400.35 452.221C400.292 452.084 400.188 451.973 400.04 451.887C399.895 451.797 399.692 451.721 399.43 451.658V453.99H397.954V443.069C398.184 443.127 398.391 443.184 398.575 443.239C398.758 443.289 398.956 443.348 399.167 443.414L399.418 443.49H400.62L401.241 442.781C401.526 443.031 401.762 443.244 401.95 443.42C402.137 443.592 402.286 443.737 402.395 443.854C402.504 443.967 402.581 444.063 402.624 444.141C402.67 444.215 402.694 444.281 402.694 444.34C402.694 444.375 402.68 444.412 402.653 444.451C402.629 444.487 402.586 444.522 402.524 444.557ZM399.899 447.487L399.946 447.328C400.051 447.035 400.147 446.725 400.233 446.397C400.323 446.065 400.401 445.731 400.467 445.395C400.534 445.059 400.584 444.735 400.62 444.422H399.43V450.867C399.598 450.883 399.764 450.897 399.928 450.908C400.092 450.92 400.231 450.926 400.344 450.926C400.614 450.926 400.799 450.85 400.901 450.698C401.006 450.545 401.059 450.274 401.059 449.883C401.059 449.477 400.963 449.076 400.772 448.682C400.584 448.287 400.293 447.889 399.899 447.487ZM393.336 453.123V453.844H391.895V449.227C391.981 449.242 392.055 449.258 392.118 449.274C392.184 449.285 392.254 449.299 392.329 449.315C392.403 449.33 392.493 449.352 392.598 449.379C392.708 449.403 392.848 449.436 393.02 449.479L393.202 449.526L393.489 449.596H395.299L395.938 448.957C396.286 449.203 396.559 449.406 396.758 449.567C396.958 449.727 397.098 449.858 397.18 449.959C397.262 450.061 397.303 450.149 397.303 450.223C397.303 450.289 397.268 450.352 397.198 450.41L396.852 450.698V453.715H395.387V453.123H393.336ZM393.336 452.186H395.387V450.498H393.336V452.186ZM408.108 442.576C407.557 443.194 407.118 443.811 406.79 444.428C406.461 445.045 406.225 445.672 406.081 446.309C405.936 446.942 405.864 447.598 405.864 448.278C405.864 448.957 405.936 449.615 406.081 450.252C406.225 450.885 406.461 451.51 406.79 452.127C407.118 452.74 407.557 453.358 408.108 453.979H407.229C406.92 453.752 406.631 453.477 406.362 453.153C406.096 452.828 405.856 452.473 405.641 452.086C405.43 451.696 405.249 451.287 405.096 450.862C404.944 450.436 404.827 450.004 404.745 449.567C404.667 449.125 404.627 448.696 404.627 448.278C404.627 447.856 404.667 447.426 404.745 446.989C404.827 446.551 404.944 446.119 405.096 445.694C405.249 445.268 405.43 444.862 405.641 444.475C405.856 444.084 406.096 443.727 406.362 443.403C406.631 443.078 406.92 442.803 407.229 442.576H408.108ZM412.807 451.166C412.807 451.358 412.829 451.522 412.872 451.658C412.915 451.795 412.977 451.891 413.059 451.946C413.161 452.012 413.293 452.063 413.458 452.098C413.625 452.133 413.858 452.155 414.155 452.162V452.836H410.024V452.162C410.325 452.151 410.563 452.125 410.739 452.086C410.915 452.047 411.045 451.996 411.131 451.934C411.229 451.867 411.305 451.77 411.36 451.641C411.415 451.512 411.442 451.354 411.442 451.166V445.278C411.442 445.145 411.43 445.041 411.407 444.967C411.383 444.893 411.333 444.84 411.254 444.809C411.18 444.778 411.063 444.762 410.903 444.762H409.989V444.158C410.27 444.115 410.575 444.059 410.903 443.989C411.231 443.914 411.559 443.828 411.887 443.731C412.219 443.629 412.526 443.516 412.807 443.391V451.166ZM416.663 442.576C416.971 442.803 417.258 443.078 417.524 443.403C417.793 443.727 418.034 444.084 418.245 444.475C418.459 444.862 418.643 445.268 418.795 445.694C418.948 446.119 419.063 446.551 419.141 446.989C419.223 447.426 419.264 447.856 419.264 448.278C419.264 448.696 419.223 449.125 419.141 449.567C419.063 450.004 418.948 450.436 418.795 450.862C418.643 451.287 418.459 451.696 418.245 452.086C418.034 452.473 417.793 452.826 417.524 453.147C417.258 453.471 416.971 453.748 416.663 453.979H415.784C416.338 453.358 416.778 452.74 417.102 452.127C417.43 451.51 417.667 450.885 417.811 450.252C417.956 449.615 418.028 448.957 418.028 448.278C418.028 447.598 417.956 446.942 417.811 446.309C417.667 445.672 417.43 445.045 417.102 444.428C416.778 443.811 416.338 443.194 415.784 442.576H416.663Z" fill="black"/>
<path d="M475 388H534.5V531H475V388Z" fill="#D9D9D9"/>
<path d="M362 357H425V409.5H362V357Z" fill="#FF8F8F"/>
<path d="M384.309 388.225L382.176 377.436H384.059L384.996 382.952C385.085 383.53 385.176 384.105 385.27 384.678C385.363 385.246 385.452 385.819 385.535 386.397H385.605C385.72 385.819 385.837 385.243 385.957 384.67C386.077 384.097 386.199 383.525 386.324 382.952L387.707 377.436H389.301L390.621 382.952C390.746 383.514 390.868 384.084 390.988 384.663C391.113 385.241 391.236 385.819 391.355 386.397H391.418C391.506 385.819 391.595 385.243 391.684 384.67C391.772 384.092 391.861 383.519 391.949 382.952L392.949 377.436H394.707L392.574 388.225H390.316L388.949 382.428C388.855 382.006 388.767 381.59 388.684 381.178C388.605 380.767 388.533 380.353 388.465 379.936H388.402C388.324 380.353 388.243 380.767 388.16 381.178C388.077 381.59 387.991 382.006 387.902 382.428L386.535 388.225H384.309ZM400.699 388.42C399.793 388.42 398.973 388.207 398.238 387.78C397.509 387.347 396.928 386.717 396.496 385.889C396.064 385.061 395.848 384.053 395.848 382.866C395.848 381.694 396.066 380.689 396.504 379.85C396.947 379.006 397.54 378.361 398.285 377.913C399.03 377.459 399.858 377.233 400.77 377.233C401.441 377.233 402.04 377.368 402.566 377.639C403.092 377.91 403.525 378.228 403.863 378.592L402.879 379.725C402.603 379.454 402.296 379.238 401.957 379.077C401.618 378.915 401.238 378.834 400.816 378.834C400.212 378.834 399.678 378.996 399.215 379.319C398.756 379.642 398.397 380.1 398.137 380.694C397.876 381.288 397.746 381.993 397.746 382.811C397.746 384.061 398.017 385.043 398.559 385.756C399.105 386.47 399.84 386.827 400.762 386.827C401.246 386.827 401.678 386.736 402.059 386.553C402.439 386.366 402.785 386.1 403.098 385.756L404.082 386.85C403.176 387.897 402.048 388.42 400.699 388.42Z" fill="black"/>
<path d="M550.5 361V325H914L917.5 354.5H1069.5V443.5L550.5 444.5V380" stroke="black" stroke-width="1.5"/>
<path d="M643.5 324.5V358H811.5V324.5" stroke="black" stroke-width="1.5"/>
<path d="M811 390V444.5" stroke="black" stroke-width="1.5"/>
<path d="M775 390V444.5" stroke="black" stroke-width="1.5"/>
<path d="M792.842 428.425V390.784" stroke="black" stroke-width="1.5"/>
<path d="M776.846 393.921H791.113" stroke="black" stroke-width="1.5"/>
<path d="M776.846 402.547H791.113" stroke="black" stroke-width="1.5"/>
<path d="M776.846 411.173H791.113" stroke="black" stroke-width="1.5"/>
<path d="M776.846 419.799H791.113" stroke="black" stroke-width="1.5"/>
<path d="M776.846 428.032H791.113" stroke="black" stroke-width="1.5"/>
<path d="M795.004 393.921H809.271" stroke="black" stroke-width="1.5"/>
<path d="M795.004 402.547H809.271" stroke="black" stroke-width="1.5"/>
<path d="M795.004 411.173H809.271" stroke="black" stroke-width="1.5"/>
<path d="M795.004 419.799H809.271" stroke="black" stroke-width="1.5"/>
<path d="M795.004 428.032H809.271" stroke="black" stroke-width="1.5"/>
<path d="M603 361H550" stroke="black" stroke-width="1.5"/>
<path d="M603 325H550" stroke="black" stroke-width="1.5"/>
<path d="M565.633 342.842H602.237" stroke="black" stroke-width="1.5"/>
<path d="M599.187 326.846V341.113" stroke="black" stroke-width="1.5"/>
<path d="M590.799 326.846V341.113" stroke="black" stroke-width="1.5"/>
<path d="M582.41 326.846V341.113" stroke="black" stroke-width="1.5"/>
<path d="M574.022 326.846V341.113" stroke="black" stroke-width="1.5"/>
<path d="M566.014 326.846V341.113" stroke="black" stroke-width="1.5"/>
<path d="M599.187 345.004V359.271" stroke="black" stroke-width="1.5"/>
<path d="M590.799 345.004V359.271" stroke="black" stroke-width="1.5"/>
<path d="M582.41 345.004V359.271" stroke="black" stroke-width="1.5"/>
<path d="M574.022 345.004V359.271" stroke="black" stroke-width="1.5"/>
<path d="M566.014 345.004V359.271" stroke="black" stroke-width="1.5"/>
<path d="M858.5 327H911L914 354.5H858.5V327Z" fill="#FF8F8F"/>
<path d="M877.602 346L875.469 335.211H877.352L878.289 340.727C878.378 341.305 878.469 341.88 878.562 342.453C878.656 343.021 878.745 343.594 878.828 344.172H878.898C879.013 343.594 879.13 343.018 879.25 342.445C879.37 341.872 879.492 341.299 879.617 340.727L881 335.211H882.594L883.914 340.727C884.039 341.289 884.161 341.859 884.281 342.438C884.406 343.016 884.529 343.594 884.648 344.172H884.711C884.799 343.594 884.888 343.018 884.977 342.445C885.065 341.867 885.154 341.294 885.242 340.727L886.242 335.211H888L885.867 346H883.609L882.242 340.203C882.148 339.781 882.06 339.365 881.977 338.953C881.898 338.542 881.826 338.128 881.758 337.711H881.695C881.617 338.128 881.536 338.542 881.453 338.953C881.37 339.365 881.284 339.781 881.195 340.203L879.828 346H877.602ZM893.992 346.195C893.086 346.195 892.266 345.982 891.531 345.555C890.802 345.122 890.221 344.492 889.789 343.664C889.357 342.836 889.141 341.828 889.141 340.641C889.141 339.469 889.359 338.464 889.797 337.625C890.24 336.781 890.833 336.135 891.578 335.688C892.323 335.234 893.151 335.008 894.062 335.008C894.734 335.008 895.333 335.143 895.859 335.414C896.385 335.685 896.818 336.003 897.156 336.367L896.172 337.5C895.896 337.229 895.589 337.013 895.25 336.852C894.911 336.69 894.531 336.609 894.109 336.609C893.505 336.609 892.971 336.771 892.508 337.094C892.049 337.417 891.69 337.875 891.43 338.469C891.169 339.062 891.039 339.768 891.039 340.586C891.039 341.836 891.31 342.818 891.852 343.531C892.398 344.245 893.133 344.602 894.055 344.602C894.539 344.602 894.971 344.51 895.352 344.328C895.732 344.141 896.078 343.875 896.391 343.531L897.375 344.625C896.469 345.672 895.341 346.195 893.992 346.195Z" fill="black"/>
<path d="M815 391H845V440.5H815V391Z" fill="#FF8F8F"/>
<path d="M820.962 421.355L818.829 410.566H820.712L821.65 416.082C821.738 416.66 821.829 417.235 821.923 417.808C822.017 418.376 822.105 418.949 822.189 419.527H822.259C822.373 418.949 822.491 418.373 822.61 417.8C822.73 417.227 822.853 416.654 822.978 416.082L824.36 410.566H825.954L827.275 416.082C827.4 416.644 827.522 417.214 827.642 417.792C827.767 418.371 827.889 418.949 828.009 419.527H828.071C828.16 418.949 828.248 418.373 828.337 417.8C828.426 417.222 828.514 416.649 828.603 416.082L829.603 410.566H831.36L829.228 421.355H826.97L825.603 415.558C825.509 415.136 825.42 414.72 825.337 414.308C825.259 413.897 825.186 413.483 825.118 413.066H825.056C824.978 413.483 824.897 413.897 824.814 414.308C824.73 414.72 824.644 415.136 824.556 415.558L823.189 421.355H820.962ZM837.353 421.55C836.446 421.55 835.626 421.337 834.892 420.91C834.163 420.477 833.582 419.847 833.15 419.019C832.717 418.191 832.501 417.183 832.501 415.996C832.501 414.824 832.72 413.819 833.157 412.98C833.6 412.136 834.194 411.49 834.939 411.042C835.683 410.589 836.512 410.363 837.423 410.363C838.095 410.363 838.694 410.498 839.22 410.769C839.746 411.04 840.178 411.358 840.517 411.722L839.532 412.855C839.256 412.584 838.949 412.368 838.61 412.207C838.272 412.045 837.892 411.964 837.47 411.964C836.866 411.964 836.332 412.126 835.868 412.449C835.41 412.772 835.051 413.23 834.79 413.824C834.53 414.417 834.4 415.123 834.4 415.941C834.4 417.191 834.67 418.173 835.212 418.886C835.759 419.6 836.493 419.957 837.415 419.957C837.9 419.957 838.332 419.865 838.712 419.683C839.092 419.496 839.439 419.23 839.751 418.886L840.735 419.98C839.829 421.027 838.702 421.55 837.353 421.55Z" fill="black"/>
<g clip-path="url(#clip0_9_244)">
<path d="M649.333 376.01C647.761 376.01 646.891 375.178 646.811 374.1H647.913C648.023 374.684 648.582 375.084 649.417 375.084C650.301 375.084 650.818 374.669 650.818 374.037C650.818 373.526 650.475 373.249 649.743 373.072L648.636 372.795C647.606 372.547 646.985 371.935 646.985 370.976C646.985 369.785 647.993 368.978 649.422 368.978C650.861 368.978 651.761 369.78 651.845 370.813H650.757C650.649 370.273 650.163 369.898 649.412 369.898C648.615 369.898 648.112 370.313 648.112 370.91C648.112 371.351 648.443 371.648 649.046 371.791L650.149 372.063C651.285 372.34 651.938 372.885 651.938 373.936C651.938 375.178 650.969 376.01 649.333 376.01ZM655.116 370.087V375.875H653.993V370.087H652.021V369.125H657.093V370.084H655.116V370.087Z" fill="#FF5656"/>
<path fill-rule="evenodd" clip-rule="evenodd" d="M662.638 372.044V372.962C662.638 374.871 661.565 376.008 659.836 376.008C658.104 376.008 657.028 374.871 657.028 372.962V372.044C657.028 370.127 658.104 368.995 659.836 368.995C661.567 368.995 662.637 370.132 662.637 372.044H662.638ZM661.501 372.967V372.034C661.501 370.639 660.789 369.952 659.836 369.952C658.87 369.952 658.165 370.639 658.165 372.034V372.967C658.165 374.368 658.87 375.055 659.836 375.055C660.789 375.055 661.501 374.366 661.501 372.967ZM663.442 369.127H666.032C667.416 369.127 668.253 370.055 668.253 371.307C668.253 372.568 667.407 373.482 666.024 373.482H664.564V375.875H663.442V369.127ZM665.865 372.562C666.646 372.562 667.105 372.103 667.105 371.307C667.105 370.51 666.646 370.057 665.865 370.057H664.559V372.562H665.865Z" fill="#FF5656"/>
<path fill-rule="evenodd" clip-rule="evenodd" d="M652.257 359C652.034 359 651.819 359.089 651.661 359.246L644.246 366.661C644.089 366.819 644 367.034 644 367.257V377.743C644 377.966 644.089 378.181 644.246 378.339L651.661 385.754C651.819 385.911 652.034 386 652.257 386H662.743C662.966 386 663.181 385.911 663.339 385.754L670.754 378.339C670.911 378.181 671 377.966 671 377.743V367.257C671 367.034 670.911 366.819 670.754 366.661L663.339 359.246C663.181 359.089 662.966 359 662.743 359H652.257ZM645.688 367.606L652.606 360.688H662.394L669.312 367.606V377.394L662.394 384.312H652.606L645.688 377.394V367.606Z" fill="#FF5656"/>
</g>
<path d="M1004.5 605V700.25H1051.5V720.5H982V762L612.5 767L611 710.5L538.5 711V681" stroke="black" stroke-width="1.5"/>
<path d="M539 681.5L522 686V558M387.5 563V709.293L358.5 715V770.5L497 769L499 883L1306 871L1304.5 683.5L1097.5 685V604H1004.5" stroke="black" stroke-width="1.5"/>
<path d="M1052 762H982.5" stroke="black" stroke-width="1.5"/>
<path d="M1003 741H1051" stroke="black" stroke-width="1.5"/>
<path d="M1047 722.5V739" stroke="black" stroke-width="1.5"/>
<path d="M1036 722.5V739" stroke="black" stroke-width="1.5"/>
<path d="M1025 722.5V739" stroke="black" stroke-width="1.5"/>
<path d="M1014 722.5V739" stroke="black" stroke-width="1.5"/>
<path d="M1003.5 722.5V739" stroke="black" stroke-width="1.5"/>
<path d="M1047 743.5V760" stroke="black" stroke-width="1.5"/>
<path d="M1036 743.5V760" stroke="black" stroke-width="1.5"/>
<path d="M1025 743.5V760" stroke="black" stroke-width="1.5"/>
<path d="M1014 743.5V760" stroke="black" stroke-width="1.5"/>
<path d="M1003.5 743.5V760" stroke="black" stroke-width="1.5"/>
<path d="M542 726H611.5" stroke="black" stroke-width="1.5"/>
<path d="M612.5 767H542" stroke="black" stroke-width="1.5"/>
<path d="M591 747H543" stroke="black" stroke-width="1.5"/>
<path d="M547 765.5V749" stroke="black" stroke-width="1.5"/>
<path d="M558 765.5V749" stroke="black" stroke-width="1.5"/>
<path d="M569 765.5V749" stroke="black" stroke-width="1.5"/>
<path d="M580 765.5V749" stroke="black" stroke-width="1.5"/>
<path d="M590.5 765.5V749" stroke="black" stroke-width="1.5"/>
<path d="M547 744.5V728" stroke="black" stroke-width="1.5"/>
<path d="M558 744.5V728" stroke="black" stroke-width="1.5"/>
<path d="M569 744.5V728" stroke="black" stroke-width="1.5"/>
<path d="M580 744.5V728" stroke="black" stroke-width="1.5"/>
<path d="M590.5 744.5V728" stroke="black" stroke-width="1.5"/>
<path d="M556.48 879.802L500.971 881.019L499.528 804.736L555.519 804.201L556.48 879.802Z" fill="#FF8F8F" stroke="white" stroke-width="3"/>
<path d="M519.602 850.292L517.469 839.502H519.352L520.289 845.018C520.378 845.596 520.469 846.172 520.562 846.745C520.656 847.312 520.745 847.885 520.828 848.463H520.898C521.013 847.885 521.13 847.31 521.25 846.737C521.37 846.164 521.492 845.591 521.617 845.018L523 839.502H524.594L525.914 845.018C526.039 845.581 526.161 846.151 526.281 846.729C526.406 847.307 526.529 847.885 526.648 848.463H526.711C526.799 847.885 526.888 847.31 526.977 846.737C527.065 846.159 527.154 845.586 527.242 845.018L528.242 839.502H530L527.867 850.292H525.609L524.242 844.495C524.148 844.073 524.06 843.656 523.977 843.245C523.898 842.833 523.826 842.419 523.758 842.002H523.695C523.617 842.419 523.536 842.833 523.453 843.245C523.37 843.656 523.284 844.073 523.195 844.495L521.828 850.292H519.602ZM535.992 850.487C535.086 850.487 534.266 850.273 533.531 849.846C532.802 849.414 532.221 848.784 531.789 847.956C531.357 847.127 531.141 846.12 531.141 844.932C531.141 843.76 531.359 842.755 531.797 841.917C532.24 841.073 532.833 840.427 533.578 839.979C534.323 839.526 535.151 839.299 536.062 839.299C536.734 839.299 537.333 839.435 537.859 839.706C538.385 839.976 538.818 840.294 539.156 840.659L538.172 841.792C537.896 841.521 537.589 841.305 537.25 841.143C536.911 840.982 536.531 840.901 536.109 840.901C535.505 840.901 534.971 841.062 534.508 841.385C534.049 841.708 533.69 842.167 533.43 842.76C533.169 843.354 533.039 844.06 533.039 844.877C533.039 846.127 533.31 847.109 533.852 847.823C534.398 848.536 535.133 848.893 536.055 848.893C536.539 848.893 536.971 848.802 537.352 848.62C537.732 848.432 538.078 848.167 538.391 847.823L539.375 848.917C538.469 849.963 537.341 850.487 535.992 850.487Z" fill="black"/>
<path d="M1146.5 757H1097V688.472L1146.5 687.528V757Z" fill="#FF8F8F" stroke="white" stroke-width="3"/>
<path d="M1112.6 727L1110.47 716.211H1112.35L1113.29 721.727C1113.38 722.305 1113.47 722.88 1113.56 723.453C1113.66 724.021 1113.74 724.594 1113.83 725.172H1113.9C1114.01 724.594 1114.13 724.018 1114.25 723.445C1114.37 722.872 1114.49 722.299 1114.62 721.727L1116 716.211H1117.59L1118.91 721.727C1119.04 722.289 1119.16 722.859 1119.28 723.438C1119.41 724.016 1119.53 724.594 1119.65 725.172H1119.71C1119.8 724.594 1119.89 724.018 1119.98 723.445C1120.07 722.867 1120.15 722.294 1120.24 721.727L1121.24 716.211H1123L1120.87 727H1118.61L1117.24 721.203C1117.15 720.781 1117.06 720.365 1116.98 719.953C1116.9 719.542 1116.83 719.128 1116.76 718.711H1116.7C1116.62 719.128 1116.54 719.542 1116.45 719.953C1116.37 720.365 1116.28 720.781 1116.2 721.203L1114.83 727H1112.6ZM1128.99 727.195C1128.09 727.195 1127.27 726.982 1126.53 726.555C1125.8 726.122 1125.22 725.492 1124.79 724.664C1124.36 723.836 1124.14 722.828 1124.14 721.641C1124.14 720.469 1124.36 719.464 1124.8 718.625C1125.24 717.781 1125.83 717.135 1126.58 716.688C1127.32 716.234 1128.15 716.008 1129.06 716.008C1129.73 716.008 1130.33 716.143 1130.86 716.414C1131.39 716.685 1131.82 717.003 1132.16 717.367L1131.17 718.5C1130.9 718.229 1130.59 718.013 1130.25 717.852C1129.91 717.69 1129.53 717.609 1129.11 717.609C1128.51 717.609 1127.97 717.771 1127.51 718.094C1127.05 718.417 1126.69 718.875 1126.43 719.469C1126.17 720.062 1126.04 720.768 1126.04 721.586C1126.04 722.836 1126.31 723.818 1126.85 724.531C1127.4 725.245 1128.13 725.602 1129.05 725.602C1129.54 725.602 1129.97 725.51 1130.35 725.328C1130.73 725.141 1131.08 724.875 1131.39 724.531L1132.38 725.625C1131.47 726.672 1130.34 727.195 1128.99 727.195Z" fill="black"/>
<path d="M482 561.5L389.5 564.5V688H482V561.5Z" fill="#D9D9D9"/>
<path d="M426.771 616.205V617.078H425.113V611.131C425.277 611.162 425.42 611.191 425.541 611.219C425.662 611.242 425.783 611.268 425.904 611.295C426.025 611.322 426.166 611.357 426.326 611.4C426.486 611.439 426.688 611.492 426.93 611.559H429.109V608.857C429.664 608.889 430.105 608.926 430.434 608.969C430.762 609.012 430.998 609.062 431.143 609.121C431.291 609.18 431.365 609.252 431.365 609.338C431.365 609.404 431.32 609.48 431.23 609.566C431.145 609.648 430.998 609.748 430.791 609.865V611.559H433.082L433.803 610.721C434.115 610.967 434.375 611.178 434.582 611.354C434.789 611.525 434.951 611.67 435.068 611.787C435.189 611.904 435.275 612.004 435.326 612.086C435.377 612.168 435.402 612.24 435.402 612.303C435.402 612.361 435.365 612.422 435.291 612.484L434.857 612.818V616.926H433.205V616.205H430.791V620.166H429.109V616.205H426.771ZM426.771 615.15H429.109V612.578H426.771V615.15ZM433.205 615.15V612.578H430.791V615.15H433.205ZM441.895 609.643C442.395 609.643 442.818 609.691 443.166 609.789C443.518 609.883 443.824 610.021 444.086 610.205C444.41 610.428 444.676 610.715 444.883 611.066C445.09 611.414 445.193 611.814 445.193 612.268C445.193 612.514 445.16 612.746 445.094 612.965C445.031 613.184 444.943 613.379 444.83 613.551C444.729 613.703 444.611 613.842 444.479 613.967C444.346 614.088 444.188 614.207 444.004 614.324C443.82 614.438 443.604 614.557 443.354 614.682C443.104 614.803 442.812 614.941 442.48 615.098L442.146 615.256C441.662 615.482 441.271 615.697 440.975 615.9C440.678 616.1 440.455 616.266 440.307 616.398C440.174 616.52 440.059 616.639 439.961 616.756C439.867 616.873 439.775 617.025 439.686 617.213H443.465C443.723 617.213 443.93 617.191 444.086 617.148C444.242 617.102 444.383 617.016 444.508 616.891C444.605 616.793 444.684 616.664 444.742 616.504C444.801 616.34 444.852 616.119 444.895 615.842H445.48L445.047 619H438.461V617.945C438.516 617.746 438.592 617.539 438.689 617.324C438.787 617.105 438.922 616.881 439.094 616.65C439.207 616.498 439.326 616.348 439.451 616.199C439.576 616.047 439.721 615.893 439.885 615.736C440.053 615.576 440.25 615.408 440.477 615.232C440.703 615.057 440.975 614.869 441.291 614.67L441.748 614.383C441.99 614.23 442.205 614.061 442.393 613.873C442.584 613.682 442.75 613.486 442.891 613.287C442.984 613.15 443.061 612.986 443.119 612.795C443.182 612.6 443.213 612.393 443.213 612.174C443.213 611.908 443.172 611.666 443.09 611.447C443.008 611.229 442.877 611.039 442.697 610.879C442.541 610.738 442.354 610.627 442.135 610.545C441.92 610.463 441.668 610.422 441.379 610.422C440.879 610.422 440.49 610.51 440.213 610.686C440.127 610.736 440.033 610.809 439.932 610.902C439.83 610.996 439.752 611.1 439.697 611.213C439.85 611.225 439.988 611.271 440.113 611.354C440.242 611.432 440.344 611.533 440.418 611.658C440.496 611.783 440.535 611.922 440.535 612.074C440.535 612.254 440.496 612.414 440.418 612.555C440.34 612.695 440.23 612.807 440.09 612.889C439.953 612.971 439.793 613.012 439.609 613.012C439.438 613.012 439.281 612.965 439.141 612.871C439.004 612.773 438.895 612.648 438.812 612.496C438.73 612.34 438.689 612.172 438.689 611.992C438.689 611.703 438.756 611.42 438.889 611.143C439.025 610.861 439.227 610.609 439.492 610.387C439.762 610.16 440.096 609.98 440.494 609.848C440.896 609.711 441.363 609.643 441.895 609.643ZM419.957 627.35V630.566C420.129 630.359 420.285 630.154 420.426 629.951C420.566 629.744 420.709 629.521 420.854 629.283C420.732 628.803 420.631 628.279 420.549 627.713C420.471 627.143 420.404 626.486 420.35 625.744H416.02V632.166H414.76V629.787C414.451 629.932 414.146 630.061 413.846 630.174C413.549 630.283 413.277 630.375 413.031 630.449C412.961 630.605 412.9 630.717 412.85 630.783C412.803 630.85 412.756 630.883 412.709 630.883C412.65 630.883 412.59 630.828 412.527 630.719C412.465 630.605 412.398 630.424 412.328 630.174C412.262 629.92 412.184 629.584 412.094 629.166C412.215 629.154 412.332 629.143 412.445 629.131C412.559 629.115 412.67 629.105 412.779 629.102V622.41H412.217L412.07 621.578H415.275L415.926 620.787C416.023 620.869 416.109 620.945 416.184 621.016C416.262 621.086 416.336 621.16 416.406 621.238C416.477 621.312 416.553 621.398 416.635 621.496C416.717 621.594 416.812 621.713 416.922 621.854L416.67 622.346H417.555V620.74C417.984 620.768 418.326 620.799 418.58 620.834C418.834 620.865 419.016 620.904 419.125 620.951C419.238 620.998 419.295 621.055 419.295 621.121C419.295 621.172 419.262 621.227 419.195 621.285C419.129 621.344 419.014 621.422 418.85 621.52V622.346H419.178L419.67 621.643C419.783 621.764 419.881 621.875 419.963 621.977C420.049 622.074 420.131 622.178 420.209 622.287V620.729C420.639 620.76 420.98 620.795 421.234 620.834C421.492 620.869 421.678 620.91 421.791 620.957C421.904 621 421.961 621.051 421.961 621.109C421.961 621.195 421.828 621.32 421.562 621.484C421.559 621.621 421.555 621.709 421.551 621.748C421.551 621.783 421.551 621.807 421.551 621.818C421.551 622.107 421.553 622.422 421.557 622.762C421.561 623.102 421.566 623.447 421.574 623.799C421.586 624.146 421.598 624.479 421.609 624.795H422.271L422.887 624.086C423.035 624.219 423.158 624.334 423.256 624.432C423.354 624.529 423.447 624.631 423.537 624.736C423.631 624.838 423.74 624.965 423.865 625.117L423.602 625.662H421.662C421.682 626.041 421.705 626.381 421.732 626.682C421.76 626.979 421.791 627.273 421.826 627.566C421.936 627.336 422.041 627.082 422.143 626.805C422.244 626.523 422.352 626.205 422.465 625.85C422.922 626.174 423.246 626.426 423.438 626.605C423.629 626.785 423.725 626.93 423.725 627.039C423.725 627.105 423.688 627.154 423.613 627.186C423.543 627.217 423.428 627.232 423.268 627.232C423.143 627.518 422.986 627.82 422.799 628.141C422.611 628.457 422.4 628.777 422.166 629.102C422.256 629.375 422.344 629.602 422.43 629.781C422.516 629.961 422.578 630.051 422.617 630.051C422.645 630.051 422.682 630.002 422.729 629.904C422.779 629.807 422.832 629.678 422.887 629.518C422.945 629.354 423.002 629.174 423.057 628.979C423.115 628.783 423.166 628.586 423.209 628.387L423.818 628.721C423.725 629.17 423.656 629.539 423.613 629.828C423.574 630.113 423.555 630.348 423.555 630.531C423.555 630.746 423.578 630.914 423.625 631.035C423.676 631.16 423.762 631.264 423.883 631.346C423.781 631.592 423.645 631.779 423.473 631.908C423.305 632.037 423.117 632.102 422.91 632.102C422.637 632.102 422.375 631.969 422.125 631.703C421.875 631.441 421.611 631.023 421.334 630.449C421.076 630.758 420.791 631.061 420.479 631.357C420.166 631.654 419.855 631.912 419.547 632.131L418.984 631.562C419.102 631.461 419.203 631.367 419.289 631.281C419.379 631.199 419.467 631.111 419.553 631.018C419.639 630.928 419.732 630.826 419.834 630.713H418.779V630.414H417.771V631.193H416.582V626.102C416.648 626.121 416.727 626.143 416.816 626.166C416.906 626.189 417.004 626.217 417.109 626.248C417.223 626.283 417.316 626.312 417.391 626.336C417.465 626.355 417.564 626.387 417.689 626.43L417.807 626.465H418.732L419.213 625.949C419.494 626.16 419.711 626.33 419.863 626.459C420.02 626.588 420.127 626.691 420.186 626.77C420.248 626.844 420.279 626.91 420.279 626.969C420.279 626.996 420.271 627.025 420.256 627.057C420.24 627.084 420.221 627.111 420.197 627.139L419.957 627.35ZM421.686 621.883L422.178 621.508C422.639 621.875 422.975 622.191 423.186 622.457C423.4 622.719 423.508 622.959 423.508 623.178C423.508 623.408 423.375 623.607 423.109 623.775C422.902 623.904 422.715 623.969 422.547 623.969C422.422 623.969 422.336 623.934 422.289 623.863C422.242 623.793 422.209 623.66 422.189 623.465C422.166 623.176 422.109 622.896 422.02 622.627C421.934 622.357 421.822 622.109 421.686 621.883ZM420.232 623.102H416.33L416.166 622.41H416.02V624.883H416.992C416.945 624.844 416.912 624.799 416.893 624.748C416.877 624.697 416.869 624.617 416.869 624.508C416.857 624.328 416.824 624.158 416.77 623.998C416.719 623.834 416.645 623.684 416.547 623.547L416.992 623.166C417.371 623.361 417.648 623.545 417.824 623.717C418.004 623.885 418.094 624.049 418.094 624.209C418.094 624.33 418.033 624.451 417.912 624.572C417.791 624.693 417.629 624.797 417.426 624.883H418.41C418.469 624.629 418.518 624.404 418.557 624.209C418.596 624.014 418.627 623.832 418.65 623.664C418.674 623.492 418.689 623.314 418.697 623.131C419.225 623.279 419.596 623.4 419.811 623.494C420.029 623.588 420.139 623.678 420.139 623.764C420.139 623.811 420.109 623.857 420.051 623.904C419.992 623.947 419.896 623.992 419.764 624.039C419.713 624.16 419.646 624.285 419.564 624.414C419.486 624.543 419.385 624.699 419.26 624.883H420.291C420.283 624.758 420.275 624.643 420.268 624.537C420.264 624.432 420.26 624.314 420.256 624.186C420.252 624.057 420.248 623.893 420.244 623.693L420.232 623.102ZM414.76 622.41H414.051V623.922H414.76V622.41ZM414.76 624.76H414.051V626.354H414.76V624.76ZM417.771 627.197V628.047H418.779V627.197H417.771ZM414.76 627.197H414.051V628.926C414.188 628.902 414.303 628.881 414.396 628.861C414.494 628.842 414.615 628.818 414.76 628.791V627.197ZM418.779 629.67V628.756H417.771V629.67H418.779ZM432.783 624.139L432.725 624.221C432.639 624.322 432.535 624.438 432.414 624.566C432.293 624.695 432.174 624.818 432.057 624.936C431.939 625.053 431.838 625.15 431.752 625.229H433.135L433.838 624.508C433.951 624.59 434.051 624.662 434.137 624.725C434.223 624.787 434.307 624.852 434.389 624.918C434.471 624.984 434.562 625.062 434.664 625.152C434.77 625.238 434.898 625.348 435.051 625.48L434.705 626.02H430.732V626.646H432.678L433.346 626.102L433.516 626.213C433.668 626.303 433.801 626.385 433.914 626.459C434.027 626.533 434.133 626.607 434.23 626.682C434.328 626.756 434.43 626.84 434.535 626.934L434.213 627.438H430.732V628.105H433.516L434.271 627.473C434.4 627.547 434.514 627.615 434.611 627.678C434.709 627.736 434.803 627.797 434.893 627.859C434.986 627.922 435.088 627.994 435.197 628.076C435.307 628.154 435.438 628.252 435.59 628.369L435.256 628.914H431.406C431.773 629.164 432.188 629.387 432.648 629.582C433.113 629.773 433.609 629.934 434.137 630.062C434.668 630.188 435.217 630.275 435.783 630.326C435.627 630.494 435.488 630.658 435.367 630.818C435.25 630.975 435.141 631.141 435.039 631.316C434.938 631.496 434.834 631.699 434.729 631.926C433.932 631.695 433.201 631.375 432.537 630.965C431.873 630.551 431.271 630.035 430.732 629.418V632.166H429.244V629.811C428.846 630.131 428.398 630.432 427.902 630.713C427.41 630.994 426.895 631.244 426.355 631.463C425.816 631.686 425.275 631.867 424.732 632.008L424.24 631.264C424.701 631.107 425.16 630.912 425.617 630.678C426.078 630.439 426.523 630.172 426.953 629.875C427.387 629.574 427.787 629.254 428.154 628.914H424.709L424.398 628.105H429.174V627.438H425.729L425.477 626.646H429.174V626.02H425.201L424.938 625.229H427.732C427.721 625.045 427.674 624.861 427.592 624.678C427.514 624.49 427.408 624.311 427.275 624.139H424.85L424.574 623.283H426.256C426.225 623.1 426.166 622.904 426.08 622.697C425.998 622.49 425.898 622.291 425.781 622.1C425.664 621.908 425.539 621.742 425.406 621.602L425.91 621.162C426.539 621.459 426.996 621.729 427.281 621.971C427.566 622.213 427.709 622.455 427.709 622.697C427.709 622.799 427.678 622.898 427.615 622.996C427.557 623.09 427.471 623.186 427.357 623.283H428.189V620.822C428.631 620.857 428.979 620.893 429.232 620.928C429.486 620.963 429.668 621.002 429.777 621.045C429.887 621.088 429.941 621.143 429.941 621.209C429.941 621.256 429.908 621.309 429.842 621.367C429.779 621.426 429.676 621.5 429.531 621.59V623.283H430.334V620.799C430.975 620.834 431.432 620.883 431.705 620.945C431.982 621.004 432.121 621.084 432.121 621.186C432.121 621.232 432.086 621.287 432.016 621.35C431.949 621.412 431.842 621.488 431.693 621.578V623.283H432.051C432.164 623.053 432.268 622.812 432.361 622.562C432.459 622.309 432.543 622.059 432.613 621.812C432.684 621.562 432.736 621.332 432.771 621.121C433.217 621.258 433.572 621.377 433.838 621.479C434.107 621.58 434.303 621.67 434.424 621.748C434.545 621.826 434.605 621.898 434.605 621.965C434.605 622.016 434.562 622.064 434.477 622.111C434.391 622.158 434.254 622.205 434.066 622.252C433.941 622.408 433.793 622.576 433.621 622.756C433.449 622.936 433.266 623.111 433.07 623.283H433.814L434.453 622.574C434.586 622.676 434.703 622.771 434.805 622.861C434.91 622.951 435.016 623.051 435.121 623.16C435.227 623.27 435.348 623.402 435.484 623.559L435.162 624.139H432.783ZM431.113 624.139H428.488C428.969 624.385 429.209 624.627 429.209 624.865C429.209 624.99 429.145 625.111 429.016 625.229H430.674C430.721 625.135 430.771 625.023 430.826 624.895C430.885 624.766 430.939 624.635 430.99 624.502C431.041 624.365 431.082 624.244 431.113 624.139ZM445.949 626.225H442.264C442.256 627.096 442.203 627.891 442.105 628.609C442.012 629.328 441.871 629.984 441.684 630.578C441.496 631.168 441.258 631.709 440.969 632.201L440.225 631.65C440.381 631.209 440.508 630.717 440.605 630.174C440.707 629.631 440.781 629.018 440.828 628.334C440.875 627.65 440.898 626.875 440.898 626.008V621.186C441.367 621.291 441.787 621.402 442.158 621.52L442.322 621.566H445.879L446.453 620.934C446.789 621.207 447.051 621.43 447.238 621.602C447.426 621.77 447.557 621.902 447.631 622C447.709 622.098 447.748 622.182 447.748 622.252C447.748 622.307 447.717 622.363 447.654 622.422L447.314 622.721V630.602C447.311 630.98 447.252 631.279 447.139 631.498C447.029 631.717 446.844 631.871 446.582 631.961C446.32 632.055 445.961 632.102 445.504 632.102C445.512 631.91 445.482 631.754 445.416 631.633C445.35 631.516 445.225 631.416 445.041 631.334C444.861 631.252 444.604 631.176 444.268 631.105V630.402C444.463 630.418 444.68 630.432 444.918 630.443C445.16 630.455 445.379 630.461 445.574 630.461C445.719 630.461 445.816 630.436 445.867 630.385C445.922 630.334 445.949 630.238 445.949 630.098V626.225ZM437.91 631.24V632.055H436.621V627.566C436.797 627.598 436.99 627.641 437.201 627.695C437.416 627.746 437.639 627.809 437.869 627.883H438.83L439.322 627.314C439.635 627.557 439.875 627.75 440.043 627.895C440.215 628.039 440.334 628.152 440.4 628.234C440.467 628.316 440.5 628.387 440.5 628.445C440.5 628.492 440.477 628.539 440.43 628.586L440.154 628.85V631.838H438.906V631.24H437.91ZM443.658 629.646V630.414H442.516V626.635C442.605 626.65 442.682 626.664 442.744 626.676C442.807 626.684 442.873 626.695 442.943 626.711C443.018 626.727 443.117 626.748 443.242 626.775L443.74 626.887H444.338L444.783 626.418C445.064 626.625 445.281 626.791 445.434 626.916C445.586 627.041 445.691 627.143 445.75 627.221C445.809 627.295 445.838 627.363 445.838 627.426C445.838 627.473 445.807 627.527 445.744 627.59L445.527 627.783V629.98H444.379V629.646H443.658ZM442.264 625.434H443.33V624.602H442.527L442.322 623.887H443.33V622.674C443.912 622.713 444.324 622.76 444.566 622.814C444.809 622.865 444.93 622.934 444.93 623.02C444.93 623.105 444.801 623.227 444.543 623.383V623.887H444.807L445.205 623.318C445.33 623.447 445.43 623.555 445.504 623.641C445.582 623.727 445.65 623.809 445.709 623.887C445.771 623.965 445.836 624.057 445.902 624.162L445.674 624.602H444.543V625.434H444.883L445.322 624.854C445.42 624.936 445.502 625.012 445.568 625.082C445.635 625.148 445.697 625.217 445.756 625.287C445.818 625.357 445.883 625.441 445.949 625.539V622.469H442.264V625.434ZM439.059 623.143L439.65 622.574C439.811 622.684 439.945 622.781 440.055 622.867C440.164 622.949 440.271 623.037 440.377 623.131C440.482 623.225 440.607 623.34 440.752 623.477L440.453 624.039H436.387L436.17 623.143H439.059ZM438.701 621.602L439.346 620.922C439.49 621.035 439.613 621.141 439.715 621.238C439.82 621.332 439.922 621.434 440.02 621.543C440.117 621.648 440.229 621.777 440.354 621.93L440.043 622.48H436.814L436.598 621.602H438.701ZM438.795 624.713L439.346 624.186C439.467 624.268 439.574 624.346 439.668 624.42C439.762 624.49 439.852 624.564 439.938 624.643C440.023 624.721 440.115 624.812 440.213 624.918L440.365 625.07L440.066 625.586H436.826L436.598 624.713H438.795ZM438.795 626.248L439.346 625.709C439.49 625.811 439.613 625.902 439.715 625.984C439.816 626.062 439.916 626.146 440.014 626.236C440.115 626.322 440.238 626.434 440.383 626.57L440.066 627.109H436.838L436.609 626.248H438.795ZM437.91 630.379H438.906V628.709H437.91V630.379ZM443.658 628.891H444.379V627.631H443.658V628.891ZM456.842 621.643C457.154 621.682 457.432 621.744 457.674 621.83C457.92 621.912 458.135 622.025 458.318 622.17C458.451 622.268 458.562 622.387 458.652 622.527C458.742 622.668 458.787 622.828 458.787 623.008C458.787 623.145 458.738 623.273 458.641 623.395C458.547 623.512 458.42 623.57 458.26 623.57C458.111 623.57 458 623.529 457.926 623.447C457.852 623.365 457.775 623.23 457.697 623.043C457.596 622.801 457.443 622.6 457.24 622.439C457.041 622.279 456.812 622.156 456.555 622.07L456.842 621.643ZM455.646 622.709C455.959 622.748 456.236 622.811 456.479 622.896C456.721 622.979 456.934 623.092 457.117 623.236C457.254 623.338 457.365 623.459 457.451 623.6C457.541 623.736 457.586 623.895 457.586 624.074C457.586 624.164 457.564 624.254 457.521 624.344C457.479 624.43 457.418 624.502 457.34 624.561C457.262 624.615 457.168 624.643 457.059 624.643C456.91 624.643 456.799 624.602 456.725 624.52C456.65 624.434 456.574 624.297 456.496 624.109C456.395 623.871 456.242 623.672 456.039 623.512C455.84 623.348 455.611 623.225 455.354 623.143L455.646 622.709ZM452.898 623.131C453.105 623.131 453.336 623.193 453.59 623.318C453.848 623.439 454.088 623.615 454.311 623.846C454.494 624.041 454.691 624.248 454.902 624.467C455.117 624.686 455.328 624.896 455.535 625.1C455.746 625.303 455.938 625.482 456.109 625.639C456.293 625.807 456.49 625.973 456.701 626.137C456.916 626.301 457.133 626.457 457.352 626.605C457.57 626.754 457.779 626.889 457.979 627.01C458.178 627.131 458.355 627.232 458.512 627.314C458.758 627.439 458.941 627.553 459.062 627.654C459.184 627.756 459.279 627.879 459.35 628.023C459.412 628.148 459.449 628.277 459.461 628.41C459.477 628.539 459.484 628.654 459.484 628.756C459.484 629.014 459.443 629.221 459.361 629.377C459.283 629.533 459.186 629.646 459.068 629.717C458.955 629.787 458.842 629.822 458.729 629.822C458.557 629.822 458.379 629.779 458.195 629.693C458.016 629.607 457.834 629.494 457.65 629.354C457.553 629.283 457.43 629.191 457.281 629.078C457.137 628.965 456.977 628.838 456.801 628.697C456.629 628.557 456.453 628.408 456.273 628.252C456.094 628.096 455.924 627.936 455.764 627.771C455.279 627.271 454.818 626.744 454.381 626.189C453.947 625.635 453.545 625.078 453.174 624.52C453.135 624.465 453.09 624.428 453.039 624.408C452.992 624.389 452.945 624.379 452.898 624.379C452.785 624.379 452.697 624.422 452.635 624.508C452.549 624.625 452.453 624.789 452.348 625C452.246 625.211 452.139 625.449 452.025 625.715C451.912 625.977 451.801 626.248 451.691 626.529C451.582 626.807 451.48 627.072 451.387 627.326C451.254 627.682 451.074 627.943 450.848 628.111C450.625 628.275 450.348 628.357 450.016 628.357C449.848 628.357 449.678 628.314 449.506 628.229C449.334 628.143 449.191 628.043 449.078 627.93C448.965 627.816 448.865 627.668 448.779 627.484C448.693 627.301 448.641 627.072 448.621 626.799L448.996 626.295C449.09 626.432 449.201 626.5 449.33 626.5C449.42 626.5 449.506 626.473 449.588 626.418C449.67 626.359 449.777 626.234 449.91 626.043C450.055 625.832 450.203 625.613 450.355 625.387C450.512 625.16 450.67 624.938 450.83 624.719C450.99 624.5 451.15 624.299 451.311 624.115C451.471 623.928 451.627 623.771 451.779 623.646C451.998 623.463 452.201 623.332 452.389 623.254C452.576 623.172 452.746 623.131 452.898 623.131ZM411.162 632.74C410.611 633.357 410.172 633.975 409.844 634.592C409.516 635.209 409.279 635.836 409.135 636.473C408.99 637.105 408.918 637.762 408.918 638.441C408.918 639.121 408.99 639.779 409.135 640.416C409.279 641.049 409.516 641.674 409.844 642.291C410.172 642.904 410.611 643.521 411.162 644.143H410.283C409.975 643.916 409.686 643.641 409.416 643.316C409.15 642.992 408.91 642.637 408.695 642.25C408.484 641.859 408.303 641.451 408.15 641.025C407.998 640.6 407.881 640.168 407.799 639.73C407.721 639.289 407.682 638.859 407.682 638.441C407.682 638.02 407.721 637.59 407.799 637.152C407.881 636.715 407.998 636.283 408.15 635.857C408.303 635.432 408.484 635.025 408.695 634.639C408.91 634.248 409.15 633.891 409.416 633.566C409.686 633.242 409.975 632.967 410.283 632.74H411.162ZM419.857 634C419.943 634 420.031 634.025 420.121 634.076C420.215 634.127 420.305 634.189 420.391 634.264C420.5 634.354 420.607 634.463 420.713 634.592C420.818 634.721 420.914 634.85 421 634.979C421.086 635.107 421.15 635.221 421.193 635.318C421.236 635.408 421.264 635.49 421.275 635.564C421.291 635.635 421.299 635.693 421.299 635.74C421.299 635.814 421.273 635.877 421.223 635.928C421.172 635.975 421.113 636.02 421.047 636.062C420.809 636.215 420.645 636.387 420.555 636.578C420.398 636.934 420.219 637.291 420.016 637.65C419.812 638.01 419.584 638.379 419.33 638.758C420.041 638.988 420.654 639.266 421.17 639.59C421.689 639.914 422.137 640.283 422.512 640.697C422.633 640.83 422.727 640.975 422.793 641.131C422.863 641.287 422.898 641.463 422.898 641.658C422.898 641.814 422.869 641.967 422.811 642.115C422.756 642.264 422.68 642.387 422.582 642.484C422.461 642.605 422.352 642.689 422.254 642.736C422.16 642.783 422.051 642.807 421.926 642.807C421.75 642.807 421.586 642.746 421.434 642.625C421.281 642.504 421.156 642.346 421.059 642.15C420.957 641.939 420.852 641.74 420.742 641.553C420.637 641.361 420.51 641.176 420.361 640.996C420.146 640.727 419.91 640.467 419.652 640.217C419.395 639.963 419.109 639.734 418.797 639.531C418.477 639.953 418.107 640.352 417.689 640.727C417.275 641.098 416.807 641.439 416.283 641.752C415.99 641.928 415.676 642.102 415.34 642.273C415.008 642.441 414.676 642.598 414.344 642.742C414.012 642.883 413.699 643.004 413.406 643.105L412.779 642.361C413.092 642.24 413.418 642.092 413.758 641.916C414.102 641.736 414.434 641.545 414.754 641.342C415.078 641.139 415.363 640.939 415.609 640.744C415.871 640.533 416.133 640.297 416.395 640.035C416.66 639.773 416.912 639.492 417.15 639.191C417.389 638.887 417.604 638.568 417.795 638.236C417.904 638.049 418.014 637.844 418.123 637.621C418.236 637.398 418.346 637.17 418.451 636.936C418.561 636.701 418.66 636.473 418.75 636.25C418.844 636.027 418.926 635.822 418.996 635.635C418.734 635.662 418.451 635.699 418.146 635.746C417.846 635.793 417.525 635.855 417.186 635.934C417.1 635.953 416.998 635.98 416.881 636.016C416.764 636.047 416.652 636.08 416.547 636.115C416.441 636.15 416.361 636.186 416.307 636.221C416.186 636.291 416.062 636.344 415.938 636.379C415.816 636.41 415.721 636.426 415.65 636.426C415.537 636.426 415.428 636.4 415.322 636.35C415.217 636.295 415.109 636.225 415 636.139C414.871 636.033 414.768 635.904 414.689 635.752C414.615 635.596 414.561 635.438 414.525 635.277C414.49 635.113 414.469 634.967 414.461 634.838L414.953 634.398C415.031 634.535 415.133 634.627 415.258 634.674C415.387 634.721 415.541 634.744 415.721 634.744C415.795 634.744 415.91 634.74 416.066 634.732C416.227 634.721 416.408 634.707 416.611 634.691C416.818 634.676 417.025 634.658 417.232 634.639C417.436 634.615 417.637 634.596 417.836 634.58C418.035 634.564 418.219 634.551 418.387 634.539C418.555 634.523 418.689 634.512 418.791 634.504C418.928 634.492 419.045 634.455 419.143 634.393C419.24 634.33 419.328 634.264 419.406 634.193C419.465 634.139 419.535 634.094 419.617 634.059C419.703 634.02 419.783 634 419.857 634ZM431.617 633.654C431.695 633.646 431.76 633.65 431.811 633.666C431.865 633.682 431.926 633.705 431.992 633.736C432.113 633.787 432.244 633.867 432.385 633.977C432.529 634.082 432.646 634.186 432.736 634.287C432.811 634.373 432.863 634.455 432.895 634.533C432.926 634.611 432.941 634.693 432.941 634.779C432.941 634.818 432.932 634.871 432.912 634.938C432.893 635 432.846 635.059 432.771 635.113C432.693 635.176 432.586 635.215 432.449 635.23C432.316 635.242 432.164 635.248 431.992 635.248C431.906 635.248 431.797 635.248 431.664 635.248C431.531 635.244 431.396 635.236 431.26 635.225C431.127 635.213 430.951 635.213 430.732 635.225C430.518 635.236 430.289 635.254 430.047 635.277C429.805 635.301 429.582 635.326 429.379 635.354C429.152 635.385 428.943 635.42 428.752 635.459C428.564 635.498 428.416 635.535 428.307 635.57C428.182 635.613 428.068 635.645 427.967 635.664C427.865 635.684 427.775 635.693 427.697 635.693C427.51 635.693 427.35 635.625 427.217 635.488C426.939 635.211 426.76 634.83 426.678 634.346L427.135 633.941C427.166 634.016 427.207 634.082 427.258 634.141C427.309 634.195 427.379 634.24 427.469 634.275C427.527 634.299 427.605 634.314 427.703 634.322C427.805 634.33 427.91 634.334 428.02 634.334C428.078 634.334 428.18 634.328 428.324 634.316C428.473 634.305 428.643 634.289 428.834 634.27C429.029 634.25 429.229 634.229 429.432 634.205C429.639 634.182 429.83 634.158 430.006 634.135C430.186 634.111 430.332 634.09 430.445 634.07C430.59 634.047 430.73 634.016 430.867 633.977C431.004 633.934 431.139 633.869 431.271 633.783C431.318 633.752 431.367 633.725 431.418 633.701C431.469 633.674 431.535 633.658 431.617 633.654ZM432.895 636.051C432.984 636.051 433.068 636.072 433.146 636.115C433.225 636.154 433.295 636.201 433.357 636.256C433.521 636.389 433.682 636.549 433.838 636.736C433.998 636.92 434.127 637.104 434.225 637.287C434.271 637.377 434.301 637.459 434.312 637.533C434.324 637.604 434.33 637.666 434.33 637.721C434.33 637.768 434.312 637.836 434.277 637.926C434.246 638.016 434.168 638.1 434.043 638.178C433.945 638.236 433.852 638.318 433.762 638.424C433.676 638.525 433.594 638.666 433.516 638.846C433.379 639.158 433.213 639.477 433.018 639.801C432.826 640.125 432.604 640.439 432.35 640.744C432.1 641.049 431.816 641.328 431.5 641.582C431.145 641.867 430.75 642.135 430.316 642.385C429.887 642.631 429.434 642.855 428.957 643.059C428.484 643.262 428.008 643.434 427.527 643.574L426.988 642.842C427.41 642.678 427.836 642.479 428.266 642.244C428.699 642.006 429.111 641.744 429.502 641.459C429.896 641.17 430.242 640.867 430.539 640.551C430.762 640.316 430.969 640.043 431.16 639.73C431.355 639.418 431.529 639.09 431.682 638.746C431.838 638.402 431.961 638.068 432.051 637.744C431.801 637.76 431.529 637.783 431.236 637.814C430.947 637.846 430.648 637.883 430.34 637.926C430.031 637.969 429.727 638.012 429.426 638.055C429.129 638.094 428.848 638.131 428.582 638.166C428.344 638.193 428.137 638.23 427.961 638.277C427.785 638.324 427.66 638.367 427.586 638.406C427.395 638.508 427.215 638.559 427.047 638.559C426.957 638.559 426.85 638.531 426.725 638.477C426.6 638.422 426.48 638.35 426.367 638.26C426.254 638.166 426.164 638.066 426.098 637.961C426.023 637.828 425.961 637.682 425.91 637.521C425.859 637.361 425.83 637.176 425.822 636.965L426.268 636.555C426.322 636.676 426.422 636.771 426.566 636.842C426.715 636.908 426.887 636.941 427.082 636.941C427.172 636.941 427.297 636.938 427.457 636.93C427.621 636.918 427.805 636.904 428.008 636.889C428.215 636.873 428.43 636.855 428.652 636.836C428.879 636.816 429.1 636.799 429.314 636.783C429.607 636.76 429.898 636.736 430.188 636.713C430.477 636.686 430.746 636.662 430.996 636.643C431.25 636.619 431.467 636.602 431.646 636.59C431.807 636.578 431.951 636.539 432.08 636.473C432.209 636.406 432.34 636.322 432.473 636.221C432.527 636.178 432.588 636.139 432.654 636.104C432.725 636.068 432.805 636.051 432.895 636.051ZM443.582 633.438C443.859 633.477 444.121 633.564 444.367 633.701C444.613 633.834 444.809 633.994 444.953 634.182C445.078 634.342 445.174 634.521 445.24 634.721C445.311 634.92 445.346 635.088 445.346 635.225C445.346 635.338 445.314 635.436 445.252 635.518C445.193 635.6 445.09 635.686 444.941 635.775C444.852 635.83 444.74 635.902 444.607 635.992C444.479 636.078 444.357 636.17 444.244 636.268C444.104 636.385 443.939 636.514 443.752 636.654C443.568 636.791 443.365 636.936 443.143 637.088V638.295C443.143 638.666 443.143 639.02 443.143 639.355C443.146 639.688 443.15 640.014 443.154 640.334C443.162 640.654 443.17 640.982 443.178 641.318C443.186 641.654 443.197 642.012 443.213 642.391C443.221 642.551 443.221 642.705 443.213 642.854C443.209 642.998 443.186 643.119 443.143 643.217C443.076 643.373 442.979 643.492 442.85 643.574C442.721 643.656 442.594 643.697 442.469 643.697C442.332 643.697 442.199 643.668 442.07 643.609C441.945 643.551 441.826 643.455 441.713 643.322C441.557 643.139 441.451 642.979 441.396 642.842C441.342 642.701 441.311 642.57 441.303 642.449C441.299 642.34 441.303 642.236 441.314 642.139C441.33 642.041 441.352 641.936 441.379 641.822C441.395 641.748 441.412 641.594 441.432 641.359C441.451 641.121 441.471 640.828 441.49 640.48C441.514 640.129 441.535 639.744 441.555 639.326C441.578 638.908 441.598 638.48 441.613 638.043C441.586 638.059 441.557 638.074 441.525 638.09C441.498 638.105 441.469 638.123 441.438 638.143C440.832 638.482 440.18 638.777 439.48 639.027C438.785 639.273 438.09 639.479 437.395 639.643L436.891 638.922C437.52 638.711 438.135 638.467 438.736 638.189C439.342 637.912 439.934 637.588 440.512 637.217C440.828 637.01 441.152 636.77 441.484 636.496C441.82 636.219 442.143 635.922 442.451 635.605C442.764 635.285 443.041 634.963 443.283 634.639C443.338 634.564 443.371 634.496 443.383 634.434C443.398 634.367 443.406 634.303 443.406 634.24C443.406 634.166 443.379 634.096 443.324 634.029C443.27 633.963 443.18 633.908 443.055 633.865L443.582 633.438ZM451.838 633.244C452.482 633.232 453.004 633.32 453.402 633.508C453.594 633.598 453.742 633.703 453.848 633.824C453.957 633.941 454.012 634.068 454.012 634.205C454.012 634.264 454.006 634.314 453.994 634.357C453.986 634.4 453.965 634.457 453.93 634.527C453.867 634.648 453.814 634.82 453.771 635.043C453.732 635.266 453.713 635.494 453.713 635.729V636.748C454.463 636.814 455.125 636.947 455.699 637.146C456.277 637.346 456.791 637.602 457.24 637.914C457.404 638.023 457.541 638.152 457.65 638.301C457.76 638.449 457.842 638.604 457.896 638.764C457.955 638.92 457.984 639.068 457.984 639.209C457.984 639.541 457.904 639.816 457.744 640.035C457.678 640.133 457.584 640.209 457.463 640.264C457.342 640.318 457.227 640.346 457.117 640.346C456.957 640.346 456.818 640.305 456.701 640.223C456.584 640.137 456.471 640.01 456.361 639.842C456.279 639.709 456.164 639.561 456.016 639.396C455.871 639.232 455.713 639.068 455.541 638.904C455.369 638.736 455.199 638.586 455.031 638.453C454.617 638.113 454.178 637.867 453.713 637.715V639.162C453.713 639.729 453.723 640.291 453.742 640.85C453.766 641.404 453.791 641.922 453.818 642.402C453.826 642.5 453.83 642.572 453.83 642.619V642.818C453.83 643.021 453.791 643.188 453.713 643.316C453.639 643.445 453.541 643.539 453.42 643.598C453.303 643.656 453.18 643.686 453.051 643.686C452.852 643.686 452.67 643.625 452.506 643.504C452.346 643.383 452.217 643.227 452.119 643.035C452.021 642.848 451.973 642.652 451.973 642.449C451.973 642.316 451.98 642.191 451.996 642.074C452.012 641.953 452.027 641.838 452.043 641.729C452.055 641.643 452.066 641.514 452.078 641.342C452.094 641.166 452.102 640.99 452.102 640.814L452.154 634.709C452.154 634.572 452.145 634.457 452.125 634.363C452.109 634.266 452.074 634.184 452.02 634.117C451.969 634.051 451.9 633.992 451.814 633.941C451.729 633.887 451.617 633.838 451.48 633.795L451.838 633.244ZM456.291 634.621C456.604 634.664 456.881 634.727 457.123 634.809C457.369 634.891 457.584 635.006 457.768 635.154C457.9 635.252 458.012 635.371 458.102 635.512C458.191 635.652 458.236 635.812 458.236 635.992C458.236 636.129 458.188 636.258 458.09 636.379C457.996 636.496 457.869 636.555 457.709 636.555C457.561 636.555 457.449 636.514 457.375 636.432C457.301 636.35 457.225 636.215 457.146 636.027C457.045 635.785 456.893 635.584 456.689 635.424C456.49 635.264 456.262 635.141 456.004 635.055L456.291 634.621ZM457.369 633.643C457.682 633.682 457.959 633.744 458.201 633.83C458.447 633.912 458.662 634.025 458.846 634.17C458.979 634.268 459.09 634.387 459.18 634.527C459.27 634.668 459.314 634.828 459.314 635.008C459.314 635.145 459.266 635.273 459.168 635.395C459.074 635.512 458.947 635.57 458.787 635.57C458.639 635.57 458.527 635.529 458.453 635.447C458.379 635.365 458.303 635.23 458.225 635.043C458.123 634.801 457.971 634.6 457.768 634.439C457.568 634.279 457.34 634.156 457.082 634.07L457.369 633.643ZM461.717 632.74C462.025 632.967 462.312 633.242 462.578 633.566C462.848 633.891 463.088 634.248 463.299 634.639C463.514 635.025 463.697 635.432 463.85 635.857C464.002 636.283 464.117 636.715 464.195 637.152C464.277 637.59 464.318 638.02 464.318 638.441C464.318 638.859 464.277 639.289 464.195 639.73C464.117 640.168 464.002 640.6 463.85 641.025C463.697 641.451 463.514 641.859 463.299 642.25C463.088 642.637 462.848 642.99 462.578 643.311C462.312 643.635 462.025 643.912 461.717 644.143H460.838C461.393 643.521 461.832 642.904 462.156 642.291C462.484 641.674 462.721 641.049 462.865 640.416C463.01 639.779 463.082 639.121 463.082 638.441C463.082 637.762 463.01 637.105 462.865 636.473C462.721 635.836 462.484 635.209 462.156 634.592C461.832 633.975 461.393 633.357 460.838 632.74H461.717Z" fill="black"/>
<g clip-path="url(#clip1_9_244)">
<path d="M552.333 789.01C550.761 789.01 549.891 788.178 549.811 787.1H550.913C551.023 787.684 551.582 788.084 552.417 788.084C553.301 788.084 553.818 787.669 553.818 787.037C553.818 786.526 553.475 786.249 552.743 786.072L551.636 785.795C550.606 785.547 549.985 784.935 549.985 783.976C549.985 782.785 550.993 781.978 552.422 781.978C553.861 781.978 554.761 782.78 554.845 783.813H553.757C553.649 783.273 553.163 782.898 552.412 782.898C551.615 782.898 551.112 783.313 551.112 783.91C551.112 784.351 551.443 784.648 552.046 784.791L553.149 785.063C554.285 785.34 554.938 785.885 554.938 786.936C554.938 788.178 553.969 789.01 552.333 789.01ZM558.116 783.087V788.875H556.993V783.087H555.021V782.125H560.093V783.084H558.116V783.087Z" fill="#FF5656"/>
<path fill-rule="evenodd" clip-rule="evenodd" d="M565.638 785.044V785.962C565.638 787.871 564.565 789.008 562.836 789.008C561.104 789.008 560.028 787.871 560.028 785.962V785.044C560.028 783.127 561.104 781.995 562.836 781.995C564.567 781.995 565.637 783.132 565.637 785.044H565.638ZM564.501 785.967V785.034C564.501 783.639 563.789 782.952 562.836 782.952C561.87 782.952 561.165 783.639 561.165 785.034V785.967C561.165 787.368 561.87 788.055 562.836 788.055C563.789 788.055 564.501 787.366 564.501 785.967ZM566.442 782.127H569.032C570.416 782.127 571.253 783.055 571.253 784.307C571.253 785.568 570.407 786.482 569.024 786.482H567.564V788.875H566.442V782.127ZM568.865 785.562C569.646 785.562 570.105 785.103 570.105 784.307C570.105 783.51 569.646 783.057 568.865 783.057H567.559V785.562H568.865Z" fill="#FF5656"/>
<path fill-rule="evenodd" clip-rule="evenodd" d="M555.257 772C555.034 772 554.819 772.089 554.661 772.246L547.246 779.661C547.089 779.819 547 780.034 547 780.257V790.743C547 790.966 547.089 791.181 547.246 791.339L554.661 798.754C554.819 798.911 555.034 799 555.257 799H565.743C565.966 799 566.181 798.911 566.339 798.754L573.754 791.339C573.911 791.181 574 790.966 574 790.743V780.257C574 780.034 573.911 779.819 573.754 779.661L566.339 772.246C566.181 772.089 565.966 772 565.743 772H555.257ZM548.688 780.606L555.606 773.688H565.394L572.312 780.606V790.394L565.394 797.312H555.606L548.688 790.394V780.606Z" fill="#FF5656"/>
</g>
<g clip-path="url(#clip2_9_244)">
<path d="M1052.33 745.01C1050.76 745.01 1049.89 744.178 1049.81 743.1H1050.91C1051.02 743.684 1051.58 744.084 1052.42 744.084C1053.3 744.084 1053.82 743.669 1053.82 743.037C1053.82 742.526 1053.47 742.249 1052.74 742.072L1051.64 741.795C1050.61 741.547 1049.99 740.935 1049.99 739.976C1049.99 738.785 1050.99 737.978 1052.42 737.978C1053.86 737.978 1054.76 738.78 1054.85 739.813H1053.76C1053.65 739.273 1053.16 738.898 1052.41 738.898C1051.62 738.898 1051.11 739.313 1051.11 739.91C1051.11 740.351 1051.44 740.648 1052.05 740.791L1053.15 741.063C1054.28 741.34 1054.94 741.885 1054.94 742.936C1054.94 744.178 1053.97 745.01 1052.33 745.01ZM1058.12 739.087V744.875H1056.99V739.087H1055.02V738.125H1060.09V739.084H1058.12V739.087Z" fill="#FF5656"/>
<path fill-rule="evenodd" clip-rule="evenodd" d="M1065.64 741.044V741.962C1065.64 743.871 1064.57 745.008 1062.84 745.008C1061.1 745.008 1060.03 743.871 1060.03 741.962V741.044C1060.03 739.127 1061.1 737.995 1062.84 737.995C1064.57 737.995 1065.64 739.132 1065.64 741.044H1065.64ZM1064.5 741.967V741.034C1064.5 739.639 1063.79 738.952 1062.84 738.952C1061.87 738.952 1061.16 739.639 1061.16 741.034V741.967C1061.16 743.368 1061.87 744.055 1062.84 744.055C1063.79 744.055 1064.5 743.366 1064.5 741.967ZM1066.44 738.127H1069.03C1070.42 738.127 1071.25 739.055 1071.25 740.307C1071.25 741.568 1070.41 742.482 1069.02 742.482H1067.56V744.875H1066.44V738.127ZM1068.86 741.562C1069.65 741.562 1070.11 741.103 1070.11 740.307C1070.11 739.51 1069.65 739.057 1068.86 739.057H1067.56V741.562H1068.86Z" fill="#FF5656"/>
<path fill-rule="evenodd" clip-rule="evenodd" d="M1055.26 728C1055.03 728 1054.82 728.089 1054.66 728.246L1047.25 735.661C1047.09 735.819 1047 736.034 1047 736.257V746.743C1047 746.966 1047.09 747.181 1047.25 747.339L1054.66 754.754C1054.82 754.911 1055.03 755 1055.26 755H1065.74C1065.97 755 1066.18 754.911 1066.34 754.754L1073.75 747.339C1073.91 747.181 1074 746.966 1074 746.743V736.257C1074 736.034 1073.91 735.819 1073.75 735.661L1066.34 728.246C1066.18 728.089 1065.97 728 1065.74 728H1055.26ZM1048.69 736.606L1055.61 729.688H1065.39L1072.31 736.606V746.394L1065.39 753.312H1055.61L1048.69 746.394V736.606Z" fill="#FF5656"/>
</g>
<defs>
<clipPath id="clip0_9_244">
<rect width="27" height="27" fill="white" transform="translate(644 359)"/>
</clipPath>
<clipPath id="clip1_9_244">
<rect width="27" height="27" fill="white" transform="translate(547 772)"/>
</clipPath>
<clipPath id="clip2_9_244">
<rect width="27" height="27" fill="white" transform="translate(1047 728)"/>
</clipPath>
</defs>
</svg>
