<?xml version="1.0" encoding="UTF-8" standalone="no"?>
<!-- Created with Inkscape (http://www.inkscape.org/) -->

<svg
   width="600"
   height="200"
   viewBox="0 0 158.75 52.916665"
   version="1.1"
   id="svg1"
   xml:space="preserve"
   xmlns="http://www.w3.org/2000/svg"
   xmlns:svg="http://www.w3.org/2000/svg"><defs
     id="defs1" /><g
     id="layer1"><text
       xml:space="preserve"
       style="font-size:29.9119px;font-family:'Freestyle Script';-inkscape-font-specification:'Freestyle Script';text-align:start;writing-mode:lr-tb;direction:ltr;text-anchor:start;opacity:0.888143;fill:#000000;stroke:none;stroke-width:3.16211;stroke-linecap:round;stroke-linejoin:round"
       x="5.3331494"
       y="39.370758"
       id="text2"><tspan
         id="tspan2"
         style="font-style:normal;font-variant:normal;font-weight:normal;font-stretch:normal;font-size:29.9119px;font-family:HGSeikaishotaiPRO;-inkscape-font-specification:HGSeikaishotaiPRO;stroke-width:3.16211"
         x="5.3331494"
         y="39.370758">TimeTable</tspan></text></g><g
     id="layer2"
     style="opacity:0.816555;stroke:#ff0000;stroke-width:15;stroke-dasharray:none;stroke-opacity:1"><path
       style="opacity:0.816555;fill:none;stroke:#ff0000;stroke-width:2.5;stroke-linecap:round;stroke-linejoin:round;stroke-dasharray:none;stroke-opacity:1"
       d="m 6.07079,22.828213 c 1.012082,-3.312268 3.864314,-3.864312 3.864314,-3.864312 l 14.353159,0.36803 c 0,0 1.196096,0.09201 2.392193,3.58829 L 24.472278,19.515946 H 16.467632 V 38.7455 l -4.140335,-0.09201 h 8.096654 l 7.452603,-12.697024 3.864311,-0.276022 0.18402,13.065056 -3.496287,0.09201 h 6.440517 l -0.092,-13.157066 4.23234,0.736059 1.38011,-0.828067 -0.18402,13.341079 h -3.03624 5.61245 l -2.57621,-8.004647 v -1.840149 c 3.49629,-4.968402 8.74071,-2.944238 8.74071,-0.09201 l 0.092,9.844798 -3.03624,-0.276022 6.07249,0.184015 -3.22026,-4.140335 0.18402,-5.428439 c 4.32435,-5.980483 9.20074,-2.760223 8.7407,0.276023 l 0.092,9.384758 -3.12824,-0.184015 h 6.44052 l -0.18401,-7.360595 13.34107,0.09201 c 0.092,-8.832716 -10.85687,-5.980485 -10.30483,-0.276024 l -0.092,1.196096 c -0.36804,10.304833 11.86895,4.32435 11.2249,2.944238 l 2.30019,-12.513011 c 1.10409,-3.680297 5.79646,-4.048327 5.79646,-4.048327 l 12.23699,0.276022 c 2.57621,1.012082 2.57621,3.496283 2.57621,3.496283 l -6.44052,-3.772305 -3.31227,0.184015 -0.092,19.781598 -3.58829,-0.09201 h 7.26858 l 7.91264,-8.188662 1.748135,-1.288101 c 1.84015,-4.140335 7.26859,-3.496283 7.72863,-0.36803 -0.18402,1.288104 0.27602,7.820632 0.27602,7.820632 -7.54461,4.416357 -14.721185,-1.840148 -0.18401,-5.612453 l 0.092,6.624535 c 0,0 0.64406,2.668216 2.94424,-0.184015 l 0.092,-17.757435 h 5.88848 l 0.092,19.321562 1e-5,-10.120818 c 10.21283,-9.568774 15.91729,15.273234 0.55205,7.728624 l 9.84479,-17.849442 6.25651,-0.276022 0.18401,20.241635 h -3.12825 5.98048 l -0.092,-6.992565 13.80111,-0.276022 c 0.18402,-6.348513 -9.66078,-8.004647 -10.39684,-0.276022 -2.02416,5.060408 6.1645,12.052974 11.04089,3.864312 L 152.36836,13.662407 31.358475,13.792526 v 2.862599 c -2.342125,12.361226 2.99272,0.260236 0,0"
       id="path3" /></g></svg>
