<svg width="24" height="24" viewBox="0 0 24 24" fill="none" xmlns="http://www.w3.org/2000/svg">
<path d="M1.5 4.5C1.5 4.89782 1.65804 5.27936 1.93934 5.56066C2.22064 5.84196 2.60218 6 3 6C3.39782 6 3.77936 5.84196 4.06066 5.56066C4.34196 5.27936 4.5 4.89782 4.5 4.5C4.5 4.10218 4.34196 3.72064 4.06066 3.43934C3.77936 3.15804 3.39782 3 3 3C2.60218 3 2.22064 3.15804 1.93934 3.43934C1.65804 3.72064 1.5 4.10218 1.5 4.5ZM6 6H22.5V3H6V6ZM22.5 13.5H6V10.5H22.5V13.5ZM1.5 12C1.5 12.3978 1.65804 12.7794 1.93934 13.0607C2.22064 13.342 2.60218 13.5 3 13.5C3.39782 13.5 3.77936 13.342 4.06066 13.0607C4.34196 12.7794 4.5 12.3978 4.5 12C4.5 11.6022 4.34196 11.2206 4.06066 10.9393C3.77936 10.658 3.39782 10.5 3 10.5C2.60218 10.5 2.22064 10.658 1.93934 10.9393C1.65804 11.2206 1.5 11.6022 1.5 12ZM22.5 21H6V18H22.5V21ZM1.5 19.5C1.5 19.8978 1.65804 20.2794 1.93934 20.5607C2.22064 20.842 2.60218 21 3 21C3.39782 21 3.77936 20.842 4.06066 20.5607C4.34196 20.2794 4.5 19.8978 4.5 19.5C4.5 19.1022 4.34196 18.7206 4.06066 18.4393C3.77936 18.158 3.39782 18 3 18C2.60218 18 2.22064 18.158 1.93934 18.4393C1.65804 18.7206 1.5 19.1022 1.5 19.5Z" fill="#535353"/>
</svg>
