<svg width="1103" height="1103" viewBox="0 0 1103 1103" fill="none" xmlns="http://www.w3.org/2000/svg">
<path d="M358.475 91.9167H744.525C891.592 91.9167 1011.08 211.408 1011.08 358.475V744.525C1011.08 815.221 983 883.021 933.01 933.01C883.021 983 815.221 1011.08 744.525 1011.08H358.475C211.408 1011.08 91.9167 891.592 91.9167 744.525V358.475C91.9167 287.779 120 219.979 169.99 169.99C219.979 120 287.779 91.9167 358.475 91.9167ZM349.283 183.833C305.403 183.833 263.321 201.265 232.293 232.293C201.265 263.32 183.833 305.403 183.833 349.283V753.717C183.833 845.174 257.826 919.167 349.283 919.167H753.717C797.597 919.167 839.68 901.735 870.708 870.708C901.736 839.68 919.167 797.597 919.167 753.717V349.283C919.167 257.826 845.174 183.833 753.717 183.833H349.283ZM792.781 252.771C808.018 252.771 822.63 258.823 833.403 269.597C844.177 280.371 850.229 294.983 850.229 310.219C850.229 325.455 844.177 340.067 833.403 350.841C822.63 361.614 808.018 367.667 792.781 367.667C777.545 367.667 762.933 361.614 752.16 350.841C741.386 340.067 735.333 325.455 735.333 310.219C735.333 294.983 741.386 280.371 752.16 269.597C762.933 258.823 777.545 252.771 792.781 252.771ZM551.5 321.708C612.445 321.708 670.893 345.918 713.987 389.013C757.082 432.107 781.292 490.555 781.292 551.5C781.292 612.445 757.082 670.893 713.987 713.987C670.893 757.082 612.445 781.292 551.5 781.292C490.556 781.292 432.107 757.082 389.013 713.987C345.919 670.893 321.708 612.445 321.708 551.5C321.708 490.555 345.919 432.107 389.013 389.013C432.107 345.918 490.556 321.708 551.5 321.708ZM551.5 413.625C514.933 413.625 479.864 428.151 454.008 454.008C428.151 479.864 413.625 514.933 413.625 551.5C413.625 588.067 428.151 623.136 454.008 648.992C479.864 674.849 514.933 689.375 551.5 689.375C588.067 689.375 623.136 674.849 648.992 648.992C674.849 623.136 689.375 588.067 689.375 551.5C689.375 514.933 674.849 479.864 648.992 454.008C623.136 428.151 588.067 413.625 551.5 413.625Z" fill="#CBA373"/>
</svg>
