<svg width="31" height="31" viewBox="0 0 31 31" fill="none" xmlns="http://www.w3.org/2000/svg">
<path d="M15.5 7.26563C14.4462 7.26563 13.4161 7.57811 12.5399 8.16358C11.6636 8.74904 10.9807 9.58118 10.5775 10.5548C10.1742 11.5284 10.0687 12.5997 10.2743 13.6332C10.4798 14.6668 10.9873 15.6162 11.7324 16.3613C12.4776 17.1065 13.427 17.6139 14.4605 17.8195C15.4941 18.0251 16.5654 17.9196 17.539 17.5163C18.5126 17.113 19.3447 16.4301 19.9302 15.5539C20.5156 14.6777 20.8281 13.6476 20.8281 12.5938C20.8265 11.1811 20.2647 9.82684 19.2658 8.82797C18.2669 7.8291 16.9126 7.26723 15.5 7.26563ZM15.5 15.0156C15.021 15.0156 14.5528 14.8736 14.1545 14.6075C13.7562 14.3413 13.4458 13.9631 13.2625 13.5206C13.0792 13.078 13.0312 12.5911 13.1247 12.1213C13.2181 11.6515 13.4488 11.2199 13.7875 10.8812C14.1262 10.5425 14.5577 10.3119 15.0275 10.2184C15.4973 10.125 15.9843 10.1729 16.4268 10.3562C16.8694 10.5395 17.2476 10.85 17.5137 11.2482C17.7798 11.6465 17.9219 12.1147 17.9219 12.5938C17.9219 13.2361 17.6667 13.8521 17.2125 14.3063C16.7583 14.7605 16.1423 15.0156 15.5 15.0156ZM15.5 1.45312C12.5463 1.45633 9.71451 2.6311 7.62593 4.71968C5.53735 6.80826 4.36258 9.64006 4.35938 12.5938C4.35938 21.9616 14.2455 28.9898 14.6669 29.2841C14.9111 29.455 15.2019 29.5467 15.5 29.5467C15.7981 29.5467 16.0889 29.455 16.3331 29.2841C18.2056 27.9042 19.9187 26.3202 21.4409 24.5614C24.8424 20.655 26.6406 16.5136 26.6406 12.5938C26.6374 9.64006 25.4626 6.80826 23.3741 4.71968C21.2855 2.6311 18.4537 1.45633 15.5 1.45312ZM19.2902 22.6094C18.1356 23.9356 16.8674 25.1585 15.5 26.264C14.1326 25.1585 12.8644 23.9356 11.7098 22.6094C9.6875 20.2675 7.26562 16.6274 7.26562 12.5938C7.26562 10.4099 8.13317 8.31541 9.67742 6.77117C11.2217 5.22692 13.3161 4.35938 15.5 4.35938C17.6839 4.35938 19.7783 5.22692 21.3226 6.77117C22.8668 8.31541 23.7344 10.4099 23.7344 12.5938C23.7344 16.6274 21.3125 20.2675 19.2902 22.6094Z" fill="#474747"/>
</svg>
