<svg width="1440" height="1440" viewBox="0 0 1440 1440" fill="none" xmlns="http://www.w3.org/2000/svg">
<path d="M128 1152.5L1310.5 1151.5C899.5 1403.5 383 1327.5 128 1152.5Z" fill="#CBA373"/>
<path d="M722.229 494.492L1312.23 1149.49L1316.73 1154.49L1310 1154.5L128.503 1155.5L121.75 1155.51L126.272 1150.49L717.772 494.491L720.001 492.019L722.229 494.492Z" fill="#CBA373" stroke="#141414" stroke-width="6"/>
<mask id="path-3-outside-1_1_2" maskUnits="userSpaceOnUse" x="494" y="313" width="450" height="429" fill="black">
<rect fill="white" x="494" y="313" width="450" height="429"/>
<path d="M719 321C838.846 321 936 413.453 936 527.5C936 641.547 838.846 734 719 734C599.154 734 502 641.547 502 527.5C502 413.453 599.154 321 719 321ZM719.5 360C646.875 360 588 434.321 588 526C588 617.679 646.875 692 719.5 692C792.125 692 851 617.679 851 526C851 434.321 792.125 360 719.5 360Z"/>
</mask>
<path d="M719 321C838.846 321 936 413.453 936 527.5C936 641.547 838.846 734 719 734C599.154 734 502 641.547 502 527.5C502 413.453 599.154 321 719 321ZM719.5 360C646.875 360 588 434.321 588 526C588 617.679 646.875 692 719.5 692C792.125 692 851 617.679 851 526C851 434.321 792.125 360 719.5 360Z" fill="#CBA373"/>
<path d="M719 321V329C834.806 329 928 418.241 928 527.5H936H944C944 408.666 842.886 313 719 313V321ZM936 527.5H928C928 636.759 834.806 726 719 726V734V742C842.886 742 944 646.334 944 527.5H936ZM719 734V726C603.194 726 510 636.759 510 527.5H502H494C494 646.334 595.114 742 719 742V734ZM502 527.5H510C510 418.241 603.194 329 719 329V321V313C595.114 313 494 408.666 494 527.5H502ZM719.5 360V352C640.819 352 580 431.741 580 526H588H596C596 436.901 652.93 368 719.5 368V360ZM588 526H580C580 620.259 640.819 700 719.5 700V692V684C652.93 684 596 615.099 596 526H588ZM719.5 692V700C798.181 700 859 620.259 859 526H851H843C843 615.099 786.07 684 719.5 684V692ZM851 526H859C859 431.741 798.181 352 719.5 352V360V368C786.07 368 843 436.901 843 526H851Z" fill="#141414" mask="url(#path-3-outside-1_1_2)"/>
<path d="M718.5 131L128 1151.5C128 708 394 283 718.5 131Z" fill="#CBA373"/>
<path d="M720 131L1310.5 1151.5C1310.5 708 1044.5 283 720 131Z" fill="#CBA373"/>
<path d="M508.37 1003H491.27V882.35H448.9V867.34H550.55V882.35H508.37V1003ZM563.216 1039.1C560.176 1039.1 557.516 1038.85 555.236 1038.34C552.956 1037.96 550.93 1037.39 549.156 1036.63V1022.19C551.183 1022.7 553.336 1023.14 555.616 1023.52C557.896 1023.9 560.303 1024.09 562.836 1024.09C566.003 1024.09 568.98 1023.46 571.766 1022.19C574.68 1020.92 577.023 1018.71 578.796 1015.54C580.57 1012.37 581.456 1007.94 581.456 1002.24V867.34H598.556V1000.91C598.556 1009.65 597.1 1016.81 594.186 1022.38C591.273 1028.08 587.156 1032.26 581.836 1034.92C576.516 1037.71 570.31 1039.1 563.216 1039.1ZM722.709 966.71C722.709 974.817 720.746 981.72 716.819 987.42C712.893 992.993 707.256 997.3 699.909 1000.34C692.689 1003.38 684.139 1004.9 674.259 1004.9C669.193 1004.9 664.316 1004.65 659.629 1004.14C655.069 1003.63 650.889 1002.94 647.089 1002.05C643.289 1001.04 639.933 999.833 637.019 998.44V982.1C641.579 984.127 647.216 985.963 653.929 987.61C660.769 989.257 667.799 990.08 675.019 990.08C681.733 990.08 687.369 989.193 691.929 987.42C696.489 985.647 699.909 983.113 702.189 979.82C704.469 976.527 705.609 972.663 705.609 968.23C705.609 963.797 704.659 960.06 702.759 957.02C700.859 953.98 697.566 951.193 692.879 948.66C688.319 946 681.923 943.213 673.689 940.3C667.863 938.147 662.733 935.867 658.299 933.46C653.993 930.927 650.383 928.077 647.469 924.91C644.556 921.743 642.339 918.133 640.819 914.08C639.426 910.027 638.729 905.34 638.729 900.02C638.729 892.8 640.566 886.657 644.239 881.59C647.913 876.397 652.979 872.407 659.439 869.62C666.026 866.833 673.563 865.44 682.049 865.44C689.523 865.44 696.363 866.137 702.569 867.53C708.776 868.923 714.413 870.76 719.479 873.04L714.159 887.67C709.473 885.643 704.343 883.933 698.769 882.54C693.323 881.147 687.623 880.45 681.669 880.45C675.969 880.45 671.219 881.273 667.419 882.92C663.619 884.567 660.769 886.91 658.869 889.95C656.969 892.863 656.019 896.283 656.019 900.21C656.019 904.77 656.969 908.57 658.869 911.61C660.769 914.65 663.873 917.373 668.179 919.78C672.486 922.187 678.313 924.783 685.659 927.57C693.639 930.483 700.353 933.65 705.799 937.07C711.373 940.363 715.553 944.353 718.339 949.04C721.253 953.727 722.709 959.617 722.709 966.71ZM865.177 1003H848.077V939.73H778.537V1003H761.437V867.34H778.537V924.72H848.077V867.34H865.177V1003ZM990.617 966.71C990.617 974.817 988.653 981.72 984.727 987.42C980.8 992.993 975.163 997.3 967.817 1000.34C960.597 1003.38 952.047 1004.9 942.167 1004.9C937.1 1004.9 932.223 1004.65 927.537 1004.14C922.977 1003.63 918.797 1002.94 914.997 1002.05C911.197 1001.04 907.84 999.833 904.927 998.44V982.1C909.487 984.127 915.123 985.963 921.837 987.61C928.677 989.257 935.707 990.08 942.927 990.08C949.64 990.08 955.277 989.193 959.837 987.42C964.397 985.647 967.817 983.113 970.097 979.82C972.377 976.527 973.517 972.663 973.517 968.23C973.517 963.797 972.567 960.06 970.667 957.02C968.767 953.98 965.473 951.193 960.787 948.66C956.227 946 949.83 943.213 941.597 940.3C935.77 938.147 930.64 935.867 926.207 933.46C921.9 930.927 918.29 928.077 915.377 924.91C912.463 921.743 910.247 918.133 908.727 914.08C907.333 910.027 906.637 905.34 906.637 900.02C906.637 892.8 908.473 886.657 912.147 881.59C915.82 876.397 920.887 872.407 927.347 869.62C933.933 866.833 941.47 865.44 949.957 865.44C957.43 865.44 964.27 866.137 970.477 867.53C976.683 868.923 982.32 870.76 987.387 873.04L982.067 887.67C977.38 885.643 972.25 883.933 966.677 882.54C961.23 881.147 955.53 880.45 949.577 880.45C943.877 880.45 939.127 881.273 935.327 882.92C931.527 884.567 928.677 886.91 926.777 889.95C924.877 892.863 923.927 896.283 923.927 900.21C923.927 904.77 924.877 908.57 926.777 911.61C928.677 914.65 931.78 917.373 936.087 919.78C940.393 922.187 946.22 924.783 953.567 927.57C961.547 930.483 968.26 933.65 973.707 937.07C979.28 940.363 983.46 944.353 986.247 949.04C989.16 953.727 990.617 959.617 990.617 966.71Z" fill="#141414"/>
<path d="M268.33 1116H261.988V1091.3H253.84V1086.01H276.478V1091.3H268.33V1116ZM289.163 1092.61C292.243 1092.61 294.595 1093.28 296.219 1094.62C297.871 1095.94 298.697 1097.97 298.697 1100.71V1116H294.329L293.111 1112.89H292.943C292.299 1113.7 291.627 1114.38 290.927 1114.91C290.255 1115.44 289.471 1115.82 288.575 1116.04C287.707 1116.29 286.629 1116.42 285.341 1116.42C283.997 1116.42 282.779 1116.17 281.687 1115.66C280.623 1115.13 279.783 1114.33 279.167 1113.27C278.551 1112.18 278.243 1110.81 278.243 1109.15C278.243 1106.72 279.097 1104.93 280.805 1103.78C282.513 1102.6 285.075 1101.96 288.491 1101.85L292.481 1101.72V1100.71C292.481 1099.51 292.159 1098.63 291.515 1098.07C290.899 1097.51 290.031 1097.23 288.911 1097.23C287.791 1097.23 286.699 1097.39 285.635 1097.73C284.571 1098.04 283.507 1098.43 282.443 1098.91L280.385 1094.66C281.617 1094.02 282.975 1093.52 284.459 1093.15C285.971 1092.79 287.539 1092.61 289.163 1092.61ZM290.045 1105.46C288.029 1105.51 286.629 1105.88 285.845 1106.55C285.061 1107.22 284.669 1108.1 284.669 1109.2C284.669 1110.15 284.949 1110.83 285.509 1111.25C286.069 1111.65 286.797 1111.84 287.693 1111.84C289.037 1111.84 290.171 1111.45 291.095 1110.67C292.019 1109.85 292.481 1108.72 292.481 1107.26V1105.37L290.045 1105.46ZM313.881 1098.36C313.881 1099.23 313.839 1100.1 313.755 1100.96C313.699 1101.8 313.629 1102.66 313.545 1103.53H313.629C313.909 1103.13 314.189 1102.74 314.469 1102.35C314.777 1101.96 315.085 1101.57 315.393 1101.17C315.701 1100.78 316.023 1100.4 316.359 1100.04L322.785 1093.07H329.841L320.727 1103.02L330.387 1116H323.163L316.569 1106.72L313.881 1108.86V1116H307.623V1084.08H313.881V1098.36ZM345.596 1092.61C348.676 1092.61 351.028 1093.28 352.652 1094.62C354.304 1095.94 355.13 1097.97 355.13 1100.71V1116H350.762L349.544 1112.89H349.376C348.732 1113.7 348.06 1114.38 347.36 1114.91C346.688 1115.44 345.904 1115.82 345.008 1116.04C344.14 1116.29 343.062 1116.42 341.774 1116.42C340.43 1116.42 339.212 1116.17 338.12 1115.66C337.056 1115.13 336.216 1114.33 335.6 1113.27C334.984 1112.18 334.676 1110.81 334.676 1109.15C334.676 1106.72 335.53 1104.93 337.238 1103.78C338.946 1102.6 341.508 1101.96 344.924 1101.85L348.914 1101.72V1100.71C348.914 1099.51 348.592 1098.63 347.948 1098.07C347.332 1097.51 346.464 1097.23 345.344 1097.23C344.224 1097.23 343.132 1097.39 342.068 1097.73C341.004 1098.04 339.94 1098.43 338.876 1098.91L336.818 1094.66C338.05 1094.02 339.408 1093.52 340.892 1093.15C342.404 1092.79 343.972 1092.61 345.596 1092.61ZM346.478 1105.46C344.462 1105.51 343.062 1105.88 342.278 1106.55C341.494 1107.22 341.102 1108.1 341.102 1109.2C341.102 1110.15 341.382 1110.83 341.942 1111.25C342.502 1111.65 343.23 1111.84 344.126 1111.84C345.47 1111.84 346.604 1111.45 347.528 1110.67C348.452 1109.85 348.914 1108.72 348.914 1107.26V1105.37L346.478 1105.46ZM373.715 1111.42C374.415 1111.42 375.087 1111.35 375.731 1111.21C376.375 1111.07 377.019 1110.9 377.663 1110.71V1115.37C376.991 1115.65 376.151 1115.89 375.143 1116.08C374.163 1116.31 373.085 1116.42 371.909 1116.42C370.537 1116.42 369.305 1116.2 368.213 1115.75C367.149 1115.3 366.295 1114.53 365.651 1113.44C365.035 1112.32 364.727 1110.78 364.727 1108.82V1097.77H361.745V1095.13L365.189 1093.03L366.995 1088.2H370.985V1093.07H377.411V1097.77H370.985V1108.82C370.985 1109.69 371.237 1110.34 371.741 1110.79C372.245 1111.21 372.903 1111.42 373.715 1111.42ZM400.788 1109.2C400.788 1110.74 400.424 1112.05 399.696 1113.14C398.968 1114.21 397.876 1115.02 396.42 1115.58C394.964 1116.14 393.158 1116.42 391.002 1116.42C389.406 1116.42 388.034 1116.31 386.886 1116.08C385.738 1115.89 384.59 1115.55 383.442 1115.08V1109.91C384.674 1110.47 386.004 1110.93 387.432 1111.3C388.86 1111.66 390.12 1111.84 391.212 1111.84C392.444 1111.84 393.312 1111.66 393.816 1111.3C394.348 1110.93 394.614 1110.46 394.614 1109.87C394.614 1109.48 394.502 1109.13 394.278 1108.82C394.082 1108.51 393.634 1108.16 392.934 1107.77C392.234 1107.38 391.142 1106.87 389.658 1106.26C388.23 1105.64 387.054 1105.04 386.13 1104.45C385.206 1103.83 384.52 1103.11 384.072 1102.27C383.624 1101.4 383.4 1100.32 383.4 1099.03C383.4 1096.9 384.226 1095.31 385.878 1094.24C387.53 1093.18 389.728 1092.65 392.472 1092.65C393.9 1092.65 395.258 1092.79 396.546 1093.07C397.834 1093.35 399.164 1093.81 400.536 1094.45L398.646 1098.95C397.89 1098.61 397.162 1098.32 396.462 1098.07C395.762 1097.81 395.076 1097.62 394.404 1097.48C393.76 1097.34 393.088 1097.27 392.388 1097.27C391.464 1097.27 390.764 1097.39 390.288 1097.65C389.84 1097.9 389.616 1098.28 389.616 1098.78C389.616 1099.14 389.728 1099.48 389.952 1099.79C390.204 1100.07 390.666 1100.38 391.338 1100.71C392.038 1101.05 393.06 1101.5 394.404 1102.06C395.72 1102.59 396.854 1103.15 397.806 1103.74C398.758 1104.3 399.486 1105.01 399.99 1105.88C400.522 1106.72 400.788 1107.82 400.788 1109.2ZM429.225 1093.07V1116H424.437L423.597 1113.06H423.261C422.785 1113.84 422.169 1114.49 421.413 1114.99C420.685 1115.47 419.873 1115.82 418.977 1116.04C418.081 1116.29 417.157 1116.42 416.205 1116.42C414.581 1116.42 413.153 1116.13 411.921 1115.54C410.689 1114.95 409.737 1114.04 409.065 1112.81C408.393 1111.58 408.057 1109.98 408.057 1108.02V1093.07H414.315V1106.47C414.315 1108.09 414.609 1109.32 415.197 1110.16C415.785 1111 416.723 1111.42 418.011 1111.42C419.299 1111.42 420.293 1111.13 420.993 1110.54C421.721 1109.95 422.225 1109.1 422.505 1107.98C422.813 1106.86 422.967 1105.49 422.967 1103.86V1093.07H429.225ZM444.565 1098.36C444.565 1099.23 444.523 1100.1 444.439 1100.96C444.383 1101.8 444.313 1102.66 444.229 1103.53H444.313C444.593 1103.13 444.873 1102.74 445.153 1102.35C445.461 1101.96 445.769 1101.57 446.077 1101.17C446.385 1100.78 446.707 1100.4 447.043 1100.04L453.469 1093.07H460.525L451.411 1103.02L461.071 1116H453.847L447.253 1106.72L444.565 1108.86V1116H438.307V1084.08H444.565V1098.36ZM473.13 1093.07V1116H466.872V1093.07H473.13ZM470.022 1084.08C470.946 1084.08 471.744 1084.3 472.416 1084.75C473.088 1085.17 473.424 1085.97 473.424 1087.15C473.424 1088.29 473.088 1089.09 472.416 1089.54C471.744 1089.99 470.946 1090.21 470.022 1090.21C469.07 1090.21 468.258 1089.99 467.586 1089.54C466.942 1089.09 466.62 1088.29 466.62 1087.15C466.62 1085.97 466.942 1085.17 467.586 1084.75C468.258 1084.3 469.07 1084.08 470.022 1084.08ZM492.973 1124.82C492.161 1124.82 491.447 1124.76 490.831 1124.65C490.215 1124.57 489.683 1124.47 489.235 1124.36V1119.07C489.683 1119.18 490.159 1119.28 490.663 1119.36C491.139 1119.44 491.657 1119.49 492.217 1119.49C492.945 1119.49 493.603 1119.35 494.191 1119.07C494.807 1118.79 495.283 1118.25 495.619 1117.47C495.955 1116.69 496.123 1115.57 496.123 1114.11V1086.01H502.465V1114.07C502.465 1116.64 502.059 1118.72 501.247 1120.28C500.463 1121.88 499.357 1123.03 497.929 1123.73C496.501 1124.46 494.849 1124.82 492.973 1124.82ZM533.085 1093.07V1116H528.297L527.457 1113.06H527.121C526.645 1113.84 526.029 1114.49 525.273 1114.99C524.545 1115.47 523.733 1115.82 522.837 1116.04C521.941 1116.29 521.017 1116.42 520.065 1116.42C518.441 1116.42 517.013 1116.13 515.781 1115.54C514.549 1114.95 513.597 1114.04 512.925 1112.81C512.253 1111.58 511.917 1109.98 511.917 1108.02V1093.07H518.175V1106.47C518.175 1108.09 518.469 1109.32 519.057 1110.16C519.645 1111 520.583 1111.42 521.871 1111.42C523.159 1111.42 524.153 1111.13 524.853 1110.54C525.581 1109.95 526.085 1109.1 526.365 1107.98C526.673 1106.86 526.827 1105.49 526.827 1103.86V1093.07H533.085ZM555.186 1092.65C557.65 1092.65 559.624 1093.32 561.108 1094.66C562.592 1095.98 563.334 1098.11 563.334 1101.05V1116H557.076V1102.6C557.076 1100.95 556.782 1099.72 556.194 1098.91C555.606 1098.07 554.668 1097.65 553.38 1097.65C551.476 1097.65 550.174 1098.3 549.474 1099.62C548.774 1100.91 548.424 1102.77 548.424 1105.21V1116H542.166V1093.07H546.954L547.794 1096.01H548.13C548.634 1095.22 549.25 1094.59 549.978 1094.12C550.706 1093.61 551.518 1093.25 552.414 1093.03C553.31 1092.77 554.234 1092.65 555.186 1092.65ZM578.548 1093.07V1116H572.29V1093.07H578.548ZM575.44 1084.08C576.364 1084.08 577.162 1084.3 577.834 1084.75C578.506 1085.17 578.842 1085.97 578.842 1087.15C578.842 1088.29 578.506 1089.09 577.834 1089.54C577.162 1089.99 576.364 1090.21 575.44 1090.21C574.488 1090.21 573.676 1089.99 573.004 1089.54C572.36 1089.09 572.038 1088.29 572.038 1087.15C572.038 1085.97 572.36 1085.17 573.004 1084.75C573.676 1084.3 574.488 1084.08 575.44 1084.08ZM608.439 1104.49C608.439 1106.4 608.173 1108.09 607.641 1109.57C607.137 1111.06 606.395 1112.32 605.415 1113.35C604.463 1114.36 603.301 1115.13 601.929 1115.66C600.557 1116.17 599.003 1116.42 597.267 1116.42C595.671 1116.42 594.187 1116.17 592.815 1115.66C591.471 1115.13 590.309 1114.36 589.329 1113.35C588.349 1112.32 587.579 1111.06 587.019 1109.57C586.487 1108.09 586.221 1106.4 586.221 1104.49C586.221 1101.94 586.669 1099.8 587.565 1098.07C588.461 1096.3 589.749 1094.96 591.429 1094.03C593.109 1093.11 595.097 1092.65 597.393 1092.65C599.549 1092.65 601.453 1093.11 603.105 1094.03C604.757 1094.96 606.059 1096.3 607.011 1098.07C607.963 1099.8 608.439 1101.94 608.439 1104.49ZM592.605 1104.49C592.605 1106 592.759 1107.28 593.067 1108.31C593.403 1109.32 593.921 1110.09 594.621 1110.62C595.321 1111.13 596.231 1111.38 597.351 1111.38C598.471 1111.38 599.367 1111.13 600.039 1110.62C600.739 1110.09 601.243 1109.32 601.551 1108.31C601.887 1107.28 602.055 1106 602.055 1104.49C602.055 1102.98 601.887 1101.72 601.551 1100.71C601.243 1099.7 600.739 1098.95 600.039 1098.44C599.339 1097.94 598.429 1097.69 597.309 1097.69C595.657 1097.69 594.453 1098.26 593.697 1099.41C592.969 1100.53 592.605 1102.22 592.605 1104.49ZM628.941 1092.65C629.249 1092.65 629.613 1092.66 630.033 1092.69C630.453 1092.72 630.789 1092.76 631.041 1092.82L630.579 1098.7C630.383 1098.64 630.089 1098.6 629.697 1098.57C629.333 1098.51 629.011 1098.49 628.731 1098.49C627.919 1098.49 627.135 1098.6 626.379 1098.82C625.623 1099.02 624.937 1099.34 624.321 1099.79C623.733 1100.24 623.257 1100.84 622.893 1101.59C622.557 1102.32 622.389 1103.23 622.389 1104.32V1116H616.131V1093.07H620.877L621.801 1096.93H622.095C622.543 1096.15 623.103 1095.43 623.775 1094.79C624.447 1094.15 625.217 1093.63 626.085 1093.24C626.981 1092.84 627.933 1092.65 628.941 1092.65ZM660.561 1092.61C663.641 1092.61 665.993 1093.28 667.617 1094.62C669.269 1095.94 670.095 1097.97 670.095 1100.71V1116H665.727L664.509 1112.89H664.341C663.697 1113.7 663.025 1114.38 662.325 1114.91C661.653 1115.44 660.869 1115.82 659.973 1116.04C659.105 1116.29 658.027 1116.42 656.739 1116.42C655.395 1116.42 654.177 1116.17 653.085 1115.66C652.021 1115.13 651.181 1114.33 650.565 1113.27C649.949 1112.18 649.641 1110.81 649.641 1109.15C649.641 1106.72 650.495 1104.93 652.203 1103.78C653.911 1102.6 656.473 1101.96 659.889 1101.85L663.879 1101.72V1100.71C663.879 1099.51 663.557 1098.63 662.913 1098.07C662.297 1097.51 661.429 1097.23 660.309 1097.23C659.189 1097.23 658.097 1097.39 657.033 1097.73C655.969 1098.04 654.905 1098.43 653.841 1098.91L651.783 1094.66C653.015 1094.02 654.373 1093.52 655.857 1093.15C657.369 1092.79 658.937 1092.61 660.561 1092.61ZM661.443 1105.46C659.427 1105.51 658.027 1105.88 657.243 1106.55C656.459 1107.22 656.067 1108.1 656.067 1109.2C656.067 1110.15 656.347 1110.83 656.907 1111.25C657.467 1111.65 658.195 1111.84 659.091 1111.84C660.435 1111.84 661.569 1111.45 662.493 1110.67C663.417 1109.85 663.879 1108.72 663.879 1107.26V1105.37L661.443 1105.46ZM692.041 1092.65C694.505 1092.65 696.479 1093.32 697.963 1094.66C699.447 1095.98 700.189 1098.11 700.189 1101.05V1116H693.931V1102.6C693.931 1100.95 693.637 1099.72 693.049 1098.91C692.461 1098.07 691.523 1097.65 690.235 1097.65C688.331 1097.65 687.029 1098.3 686.329 1099.62C685.629 1100.91 685.279 1102.77 685.279 1105.21V1116H679.021V1093.07H683.809L684.649 1096.01H684.985C685.489 1095.22 686.105 1094.59 686.833 1094.12C687.561 1093.61 688.373 1093.25 689.269 1093.03C690.165 1092.77 691.089 1092.65 692.041 1092.65ZM716.41 1116.42C713.862 1116.42 711.776 1115.43 710.152 1113.44C708.556 1111.42 707.758 1108.47 707.758 1104.58C707.758 1100.66 708.57 1097.69 710.194 1095.67C711.818 1093.66 713.946 1092.65 716.578 1092.65C717.67 1092.65 718.636 1092.8 719.476 1093.11C720.316 1093.39 721.03 1093.78 721.618 1094.29C722.234 1094.79 722.752 1095.36 723.172 1096.01H723.382C723.298 1095.56 723.2 1094.92 723.088 1094.08C722.976 1093.21 722.92 1092.33 722.92 1091.43V1084.08H729.178V1116H724.39L723.172 1113.02H722.92C722.528 1113.63 722.024 1114.21 721.408 1114.74C720.82 1115.24 720.12 1115.65 719.308 1115.96C718.496 1116.27 717.53 1116.42 716.41 1116.42ZM718.594 1111.42C720.33 1111.42 721.548 1110.92 722.248 1109.91C722.948 1108.87 723.312 1107.33 723.34 1105.29V1104.62C723.34 1102.38 722.99 1100.67 722.29 1099.49C721.618 1098.32 720.358 1097.73 718.51 1097.73C717.138 1097.73 716.06 1098.33 715.276 1099.54C714.492 1100.71 714.1 1102.42 714.1 1104.66C714.1 1106.9 714.492 1108.59 715.276 1109.74C716.06 1110.86 717.166 1111.42 718.594 1111.42ZM769.859 1107.68C769.859 1109.45 769.425 1110.99 768.557 1112.3C767.689 1113.62 766.429 1114.64 764.777 1115.37C763.153 1116.07 761.165 1116.42 758.813 1116.42C757.777 1116.42 756.755 1116.35 755.747 1116.21C754.767 1116.07 753.815 1115.87 752.891 1115.62C751.995 1115.34 751.141 1115.01 750.329 1114.61V1108.69C751.757 1109.31 753.227 1109.88 754.739 1110.41C756.279 1110.92 757.805 1111.17 759.317 1111.17C760.353 1111.17 761.179 1111.03 761.795 1110.75C762.439 1110.47 762.901 1110.09 763.181 1109.62C763.489 1109.14 763.643 1108.59 763.643 1107.98C763.643 1107.22 763.377 1106.58 762.845 1106.05C762.341 1105.51 761.655 1105.02 760.787 1104.58C759.919 1104.1 758.925 1103.6 757.805 1103.06C757.105 1102.73 756.349 1102.34 755.537 1101.89C754.725 1101.41 753.941 1100.84 753.185 1100.17C752.457 1099.47 751.855 1098.63 751.379 1097.65C750.903 1096.67 750.665 1095.49 750.665 1094.12C750.665 1092.33 751.071 1090.8 751.883 1089.54C752.723 1088.25 753.899 1087.27 755.411 1086.6C756.951 1085.93 758.757 1085.59 760.829 1085.59C762.397 1085.59 763.881 1085.77 765.281 1086.14C766.709 1086.5 768.193 1087.02 769.733 1087.69L767.675 1092.65C766.303 1092.09 765.071 1091.65 763.979 1091.35C762.887 1091.04 761.767 1090.88 760.619 1090.88C759.835 1090.88 759.163 1091.01 758.603 1091.26C758.043 1091.51 757.609 1091.86 757.301 1092.31C757.021 1092.76 756.881 1093.29 756.881 1093.91C756.881 1094.61 757.091 1095.21 757.511 1095.71C757.931 1096.19 758.561 1096.65 759.401 1097.1C760.241 1097.55 761.291 1098.08 762.551 1098.7C764.091 1099.42 765.393 1100.18 766.457 1100.96C767.549 1101.75 768.389 1102.67 768.977 1103.74C769.565 1104.8 769.859 1106.12 769.859 1107.68ZM786.775 1092.65C788.903 1092.65 790.723 1093.05 792.235 1093.87C793.775 1094.68 794.965 1095.85 795.805 1097.39C796.645 1098.93 797.065 1100.82 797.065 1103.06V1106.09H782.281C782.337 1107.85 782.855 1109.24 783.835 1110.25C784.843 1111.25 786.229 1111.76 787.993 1111.76C789.477 1111.76 790.821 1111.62 792.025 1111.34C793.229 1111.03 794.475 1110.57 795.763 1109.95V1114.78C794.643 1115.34 793.453 1115.75 792.193 1116C790.961 1116.28 789.463 1116.42 787.699 1116.42C785.403 1116.42 783.373 1116 781.609 1115.16C779.845 1114.29 778.459 1112.99 777.451 1111.25C776.443 1109.52 775.939 1107.33 775.939 1104.7C775.939 1102.01 776.387 1099.79 777.283 1098.02C778.207 1096.23 779.481 1094.89 781.105 1093.99C782.729 1093.1 784.619 1092.65 786.775 1092.65ZM786.817 1097.1C785.613 1097.1 784.605 1097.49 783.793 1098.28C783.009 1099.06 782.547 1100.28 782.407 1101.93H791.185C791.185 1101.01 791.017 1100.18 790.681 1099.45C790.373 1098.72 789.897 1098.15 789.253 1097.73C788.609 1097.31 787.797 1097.1 786.817 1097.1ZM817.68 1092.65C820.144 1092.65 822.118 1093.32 823.602 1094.66C825.086 1095.98 825.828 1098.11 825.828 1101.05V1116H819.57V1102.6C819.57 1100.95 819.276 1099.72 818.688 1098.91C818.1 1098.07 817.162 1097.65 815.874 1097.65C813.97 1097.65 812.668 1098.3 811.968 1099.62C811.268 1100.91 810.918 1102.77 810.918 1105.21V1116H804.66V1093.07H809.448L810.288 1096.01H810.624C811.128 1095.22 811.744 1094.59 812.472 1094.12C813.2 1093.61 814.012 1093.25 814.908 1093.03C815.804 1092.77 816.728 1092.65 817.68 1092.65ZM841.041 1093.07V1116H834.783V1093.07H841.041ZM837.933 1084.08C838.857 1084.08 839.655 1084.3 840.327 1084.75C840.999 1085.17 841.335 1085.97 841.335 1087.15C841.335 1088.29 840.999 1089.09 840.327 1089.54C839.655 1089.99 838.857 1090.21 837.933 1090.21C836.981 1090.21 836.169 1089.99 835.497 1089.54C834.853 1089.09 834.531 1088.29 834.531 1087.15C834.531 1085.97 834.853 1085.17 835.497 1084.75C836.169 1084.3 836.981 1084.08 837.933 1084.08ZM870.932 1104.49C870.932 1106.4 870.666 1108.09 870.134 1109.57C869.63 1111.06 868.888 1112.32 867.908 1113.35C866.956 1114.36 865.794 1115.13 864.422 1115.66C863.05 1116.17 861.496 1116.42 859.76 1116.42C858.164 1116.42 856.68 1116.17 855.308 1115.66C853.964 1115.13 852.802 1114.36 851.822 1113.35C850.842 1112.32 850.072 1111.06 849.512 1109.57C848.98 1108.09 848.714 1106.4 848.714 1104.49C848.714 1101.94 849.162 1099.8 850.058 1098.07C850.954 1096.3 852.242 1094.96 853.922 1094.03C855.602 1093.11 857.59 1092.65 859.886 1092.65C862.042 1092.65 863.946 1093.11 865.598 1094.03C867.25 1094.96 868.552 1096.3 869.504 1098.07C870.456 1099.8 870.932 1101.94 870.932 1104.49ZM855.098 1104.49C855.098 1106 855.252 1107.28 855.56 1108.31C855.896 1109.32 856.414 1110.09 857.114 1110.62C857.814 1111.13 858.724 1111.38 859.844 1111.38C860.964 1111.38 861.86 1111.13 862.532 1110.62C863.232 1110.09 863.736 1109.32 864.044 1108.31C864.38 1107.28 864.548 1106 864.548 1104.49C864.548 1102.98 864.38 1101.72 864.044 1100.71C863.736 1099.7 863.232 1098.95 862.532 1098.44C861.832 1097.94 860.922 1097.69 859.802 1097.69C858.15 1097.69 856.946 1098.26 856.19 1099.41C855.462 1100.53 855.098 1102.22 855.098 1104.49ZM891.434 1092.65C891.742 1092.65 892.106 1092.66 892.526 1092.69C892.946 1092.72 893.282 1092.76 893.534 1092.82L893.072 1098.7C892.876 1098.64 892.582 1098.6 892.19 1098.57C891.826 1098.51 891.504 1098.49 891.224 1098.49C890.412 1098.49 889.628 1098.6 888.872 1098.82C888.116 1099.02 887.43 1099.34 886.814 1099.79C886.226 1100.24 885.75 1100.84 885.386 1101.59C885.05 1102.32 884.882 1103.23 884.882 1104.32V1116H878.624V1093.07H883.37L884.294 1096.93H884.588C885.036 1096.15 885.596 1095.43 886.268 1094.79C886.94 1094.15 887.71 1093.63 888.578 1093.24C889.474 1092.84 890.426 1092.65 891.434 1092.65ZM938.721 1116H932.379V1103.06H920.493V1116H914.151V1086.01H920.493V1097.77H932.379V1086.01H938.721V1116ZM954.54 1093.07V1116H948.282V1093.07H954.54ZM951.432 1084.08C952.356 1084.08 953.154 1084.3 953.826 1084.75C954.498 1085.17 954.834 1085.97 954.834 1087.15C954.834 1088.29 954.498 1089.09 953.826 1089.54C953.154 1089.99 952.356 1090.21 951.432 1090.21C950.48 1090.21 949.668 1089.99 948.996 1089.54C948.352 1089.09 948.03 1088.29 948.03 1087.15C948.03 1085.97 948.352 1085.17 948.996 1084.75C949.668 1084.3 950.48 1084.08 951.432 1084.08ZM971.033 1092.65C972.433 1092.65 973.693 1092.93 974.813 1093.49C975.933 1094.05 976.885 1094.89 977.669 1096.01H977.837L978.341 1093.07H983.633V1116.04C983.633 1118.23 983.199 1120.06 982.331 1121.54C981.491 1123.03 980.217 1124.15 978.509 1124.9C976.801 1125.69 974.687 1126.08 972.167 1126.08C970.543 1126.08 969.031 1125.98 967.631 1125.79C966.259 1125.59 964.915 1125.24 963.599 1124.74V1119.74C964.551 1120.13 965.503 1120.45 966.455 1120.7C967.435 1120.98 968.429 1121.18 969.437 1121.29C970.473 1121.43 971.509 1121.5 972.545 1121.5C974.169 1121.5 975.373 1121.07 976.157 1120.2C976.969 1119.33 977.375 1118.03 977.375 1116.29V1115.83C977.375 1115.36 977.389 1114.87 977.417 1114.36C977.473 1113.86 977.515 1113.41 977.543 1113.02H977.375C976.591 1114.22 975.653 1115.09 974.561 1115.62C973.469 1116.15 972.237 1116.42 970.865 1116.42C968.149 1116.42 966.021 1115.38 964.481 1113.31C962.969 1111.21 962.213 1108.3 962.213 1104.58C962.213 1102.06 962.563 1099.91 963.263 1098.15C963.963 1096.36 964.971 1095 966.287 1094.08C967.631 1093.12 969.213 1092.65 971.033 1092.65ZM973.007 1097.73C972.027 1097.73 971.201 1098 970.529 1098.53C969.885 1099.03 969.395 1099.8 969.059 1100.84C968.751 1101.85 968.597 1103.12 968.597 1104.66C968.597 1106.96 968.961 1108.68 969.689 1109.83C970.417 1110.95 971.551 1111.51 973.091 1111.51C973.903 1111.51 974.603 1111.41 975.191 1111.21C975.779 1110.99 976.255 1110.64 976.619 1110.16C977.011 1109.66 977.305 1109.01 977.501 1108.23C977.697 1107.45 977.795 1106.49 977.795 1105.37V1104.62C977.795 1102.97 977.627 1101.64 977.291 1100.63C976.955 1099.62 976.437 1098.89 975.737 1098.44C975.037 1097.97 974.127 1097.73 973.007 1097.73ZM998.955 1090.59C998.955 1091.71 998.913 1092.79 998.829 1093.82C998.773 1094.86 998.717 1095.59 998.661 1096.01H998.997C999.501 1095.22 1000.09 1094.59 1000.76 1094.12C1001.43 1093.61 1002.17 1093.25 1002.99 1093.03C1003.83 1092.77 1004.71 1092.65 1005.63 1092.65C1007.28 1092.65 1008.73 1092.94 1009.96 1093.53C1011.19 1094.12 1012.14 1095.03 1012.81 1096.26C1013.51 1097.49 1013.86 1099.09 1013.86 1101.05V1116H1007.61V1102.6C1007.61 1100.95 1007.3 1099.72 1006.68 1098.91C1006.09 1098.07 1005.17 1097.65 1003.91 1097.65C1002.65 1097.65 1001.66 1097.94 1000.93 1098.53C1000.23 1099.12 999.725 1099.97 999.417 1101.09C999.109 1102.21 998.955 1103.58 998.955 1105.21V1116H992.697V1084.08H998.955V1090.59ZM1054.44 1107.68C1054.44 1109.45 1054 1110.99 1053.13 1112.3C1052.27 1113.62 1051.01 1114.64 1049.35 1115.37C1047.73 1116.07 1045.74 1116.42 1043.39 1116.42C1042.35 1116.42 1041.33 1116.35 1040.32 1116.21C1039.34 1116.07 1038.39 1115.87 1037.47 1115.62C1036.57 1115.34 1035.72 1115.01 1034.91 1114.61V1108.69C1036.33 1109.31 1037.8 1109.88 1039.32 1110.41C1040.86 1110.92 1042.38 1111.17 1043.89 1111.17C1044.93 1111.17 1045.76 1111.03 1046.37 1110.75C1047.02 1110.47 1047.48 1110.09 1047.76 1109.62C1048.07 1109.14 1048.22 1108.59 1048.22 1107.98C1048.22 1107.22 1047.95 1106.58 1047.42 1106.05C1046.92 1105.51 1046.23 1105.02 1045.36 1104.58C1044.5 1104.1 1043.5 1103.6 1042.38 1103.06C1041.68 1102.73 1040.93 1102.34 1040.11 1101.89C1039.3 1101.41 1038.52 1100.84 1037.76 1100.17C1037.03 1099.47 1036.43 1098.63 1035.96 1097.65C1035.48 1096.67 1035.24 1095.49 1035.24 1094.12C1035.24 1092.33 1035.65 1090.8 1036.46 1089.54C1037.3 1088.25 1038.48 1087.27 1039.99 1086.6C1041.53 1085.93 1043.33 1085.59 1045.41 1085.59C1046.97 1085.59 1048.46 1085.77 1049.86 1086.14C1051.29 1086.5 1052.77 1087.02 1054.31 1087.69L1052.25 1092.65C1050.88 1092.09 1049.65 1091.65 1048.56 1091.35C1047.46 1091.04 1046.34 1090.88 1045.2 1090.88C1044.41 1090.88 1043.74 1091.01 1043.18 1091.26C1042.62 1091.51 1042.19 1091.86 1041.88 1092.31C1041.6 1092.76 1041.46 1093.29 1041.46 1093.91C1041.46 1094.61 1041.67 1095.21 1042.09 1095.71C1042.51 1096.19 1043.14 1096.65 1043.98 1097.1C1044.82 1097.55 1045.87 1098.08 1047.13 1098.7C1048.67 1099.42 1049.97 1100.18 1051.03 1100.96C1052.13 1101.75 1052.97 1102.67 1053.55 1103.74C1054.14 1104.8 1054.44 1106.12 1054.44 1107.68ZM1071.23 1116.42C1068.96 1116.42 1067.03 1116.01 1065.43 1115.2C1063.84 1114.36 1062.62 1113.07 1061.78 1111.34C1060.94 1109.6 1060.52 1107.38 1060.52 1104.66C1060.52 1101.86 1060.99 1099.58 1061.95 1097.81C1062.9 1096.05 1064.21 1094.75 1065.89 1093.91C1067.6 1093.07 1069.56 1092.65 1071.77 1092.65C1073.34 1092.65 1074.7 1092.8 1075.85 1093.11C1077.02 1093.42 1078.05 1093.78 1078.91 1094.2L1077.07 1099.03C1076.09 1098.64 1075.16 1098.32 1074.29 1098.07C1073.45 1097.81 1072.61 1097.69 1071.77 1097.69C1070.68 1097.69 1069.77 1097.95 1069.04 1098.49C1068.32 1098.99 1067.77 1099.76 1067.41 1100.8C1067.07 1101.8 1066.9 1103.08 1066.9 1104.62C1066.9 1106.13 1067.08 1107.39 1067.45 1108.4C1067.84 1109.38 1068.4 1110.12 1069.13 1110.62C1069.86 1111.1 1070.74 1111.34 1071.77 1111.34C1073.09 1111.34 1074.25 1111.17 1075.26 1110.83C1076.27 1110.47 1077.25 1109.98 1078.2 1109.36V1114.7C1077.25 1115.31 1076.24 1115.75 1075.18 1116C1074.14 1116.28 1072.82 1116.42 1071.23 1116.42ZM1092.26 1090.59C1092.26 1091.71 1092.21 1092.79 1092.13 1093.82C1092.07 1094.86 1092.02 1095.59 1091.96 1096.01H1092.3C1092.8 1095.22 1093.39 1094.59 1094.06 1094.12C1094.73 1093.61 1095.48 1093.25 1096.29 1093.03C1097.13 1092.77 1098.01 1092.65 1098.93 1092.65C1100.59 1092.65 1102.03 1092.94 1103.26 1093.53C1104.49 1094.12 1105.44 1095.03 1106.12 1096.26C1106.82 1097.49 1107.17 1099.09 1107.17 1101.05V1116H1100.91V1102.6C1100.91 1100.95 1100.6 1099.72 1099.98 1098.91C1099.4 1098.07 1098.47 1097.65 1097.21 1097.65C1095.95 1097.65 1094.96 1097.94 1094.23 1098.53C1093.53 1099.12 1093.03 1099.97 1092.72 1101.09C1092.41 1102.21 1092.26 1103.58 1092.26 1105.21V1116H1086V1084.08H1092.26V1090.59ZM1136.95 1104.49C1136.95 1106.4 1136.69 1108.09 1136.15 1109.57C1135.65 1111.06 1134.91 1112.32 1133.93 1113.35C1132.98 1114.36 1131.81 1115.13 1130.44 1115.66C1129.07 1116.17 1127.52 1116.42 1125.78 1116.42C1124.18 1116.42 1122.7 1116.17 1121.33 1115.66C1119.98 1115.13 1118.82 1114.36 1117.84 1113.35C1116.86 1112.32 1116.09 1111.06 1115.53 1109.57C1115 1108.09 1114.73 1106.4 1114.73 1104.49C1114.73 1101.94 1115.18 1099.8 1116.08 1098.07C1116.97 1096.3 1118.26 1094.96 1119.94 1094.03C1121.62 1093.11 1123.61 1092.65 1125.91 1092.65C1128.06 1092.65 1129.97 1093.11 1131.62 1094.03C1133.27 1094.96 1134.57 1096.3 1135.52 1098.07C1136.48 1099.8 1136.95 1101.94 1136.95 1104.49ZM1121.12 1104.49C1121.12 1106 1121.27 1107.28 1121.58 1108.31C1121.92 1109.32 1122.43 1110.09 1123.13 1110.62C1123.83 1111.13 1124.74 1111.38 1125.86 1111.38C1126.98 1111.38 1127.88 1111.13 1128.55 1110.62C1129.25 1110.09 1129.76 1109.32 1130.06 1108.31C1130.4 1107.28 1130.57 1106 1130.57 1104.49C1130.57 1102.98 1130.4 1101.72 1130.06 1100.71C1129.76 1099.7 1129.25 1098.95 1128.55 1098.44C1127.85 1097.94 1126.94 1097.69 1125.82 1097.69C1124.17 1097.69 1122.97 1098.26 1122.21 1099.41C1121.48 1100.53 1121.12 1102.22 1121.12 1104.49ZM1165.48 1104.49C1165.48 1106.4 1165.21 1108.09 1164.68 1109.57C1164.17 1111.06 1163.43 1112.32 1162.45 1113.35C1161.5 1114.36 1160.34 1115.13 1158.97 1115.66C1157.59 1116.17 1156.04 1116.42 1154.3 1116.42C1152.71 1116.42 1151.22 1116.17 1149.85 1115.66C1148.51 1115.13 1147.35 1114.36 1146.37 1113.35C1145.39 1112.32 1144.62 1111.06 1144.06 1109.57C1143.52 1108.09 1143.26 1106.4 1143.26 1104.49C1143.26 1101.94 1143.71 1099.8 1144.6 1098.07C1145.5 1096.3 1146.79 1094.96 1148.47 1094.03C1150.15 1093.11 1152.13 1092.65 1154.43 1092.65C1156.59 1092.65 1158.49 1093.11 1160.14 1094.03C1161.79 1094.96 1163.1 1096.3 1164.05 1098.07C1165 1099.8 1165.48 1101.94 1165.48 1104.49ZM1149.64 1104.49C1149.64 1106 1149.8 1107.28 1150.1 1108.31C1150.44 1109.32 1150.96 1110.09 1151.66 1110.62C1152.36 1111.13 1153.27 1111.38 1154.39 1111.38C1155.51 1111.38 1156.4 1111.13 1157.08 1110.62C1157.78 1110.09 1158.28 1109.32 1158.59 1108.31C1158.92 1107.28 1159.09 1106 1159.09 1104.49C1159.09 1102.98 1158.92 1101.72 1158.59 1100.71C1158.28 1099.7 1157.78 1098.95 1157.08 1098.44C1156.38 1097.94 1155.47 1097.69 1154.35 1097.69C1152.69 1097.69 1151.49 1098.26 1150.73 1099.41C1150.01 1100.53 1149.64 1102.22 1149.64 1104.49ZM1179.43 1116H1173.17V1084.08H1179.43V1116Z" fill="#141414"/>
</svg>
