<svg width="26" height="26" viewBox="0 0 26 26" fill="none" xmlns="http://www.w3.org/2000/svg">
<path fill-rule="evenodd" clip-rule="evenodd" d="M11.3745 2.16666C9.90619 2.16679 8.45915 2.51806 7.15416 3.19117C5.84916 3.86427 4.72406 4.8397 3.87271 6.03606C3.02137 7.23243 2.46847 8.61504 2.26014 10.0685C2.05182 11.522 2.1941 13.0043 2.67514 14.3916C3.15617 15.779 3.96199 17.0311 5.02538 18.0437C6.08877 19.0563 7.37889 19.7998 8.7881 20.2124C10.1973 20.625 11.6847 20.6945 13.1263 20.4153C14.5679 20.1361 15.9218 19.5162 17.075 18.6073L21.0314 22.5637C21.2357 22.761 21.5094 22.8702 21.7934 22.8677C22.0774 22.8653 22.3492 22.7513 22.55 22.5505C22.7509 22.3496 22.8648 22.0779 22.8673 21.7938C22.8697 21.5098 22.7606 21.2361 22.5632 21.0318L18.6069 17.0755C19.6772 15.7177 20.3436 14.0859 20.5299 12.367C20.7162 10.6481 20.4147 8.91152 19.6601 7.35593C18.9055 5.80034 17.7282 4.48863 16.2629 3.57091C14.7976 2.6532 13.1035 2.16655 11.3745 2.16666ZM4.33288 11.375C4.33288 9.50743 5.07476 7.71636 6.39533 6.39579C7.7159 5.07522 9.50698 4.33333 11.3745 4.33333C13.2421 4.33333 15.0332 5.07522 16.3538 6.39579C17.6743 7.71636 18.4162 9.50743 18.4162 11.375C18.4162 13.2426 17.6743 15.0336 16.3538 16.3542C15.0332 17.6748 13.2421 18.4167 11.3745 18.4167C9.50698 18.4167 7.7159 17.6748 6.39533 16.3542C5.07476 15.0336 4.33288 13.2426 4.33288 11.375Z" fill="#454545"/>
</svg>
