<svg width="33" height="33" viewBox="0 0 33 33" fill="none" xmlns="http://www.w3.org/2000/svg">
<path d="M16.5 2.75C24.0941 2.75 30.25 8.90588 30.25 16.5C30.25 24.0941 24.0941 30.25 16.5 30.25C8.90588 30.25 2.75 24.0941 2.75 16.5C2.75 8.90588 8.90588 2.75 16.5 2.75ZM16.5 5.5C13.5826 5.5 10.7847 6.65893 8.72183 8.72183C6.65893 10.7847 5.5 13.5826 5.5 16.5C5.5 19.4174 6.65893 22.2153 8.72183 24.2782C10.7847 26.3411 13.5826 27.5 16.5 27.5C19.4174 27.5 22.2153 26.3411 24.2782 24.2782C26.3411 22.2153 27.5 19.4174 27.5 16.5C27.5 13.5826 26.3411 10.7847 24.2782 8.72183C22.2153 6.65893 19.4174 5.5 16.5 5.5ZM16.5 8.25C16.8368 8.25004 17.1618 8.37369 17.4135 8.59748C17.6652 8.82128 17.826 9.12965 17.8654 9.46412L17.875 9.625V15.9308L21.5971 19.6529C21.8437 19.9003 21.9869 20.2323 21.9976 20.5815C22.0082 20.9307 21.8856 21.2709 21.6545 21.5329C21.4235 21.7949 21.1014 21.9592 20.7536 21.9923C20.4058 22.0254 20.0585 21.9249 19.7821 21.7113L19.6529 21.5971L15.5279 17.4721C15.3142 17.2582 15.1769 16.9799 15.1374 16.6801L15.125 16.5V9.625C15.125 9.26033 15.2699 8.91059 15.5277 8.65273C15.7856 8.39487 16.1353 8.25 16.5 8.25Z" fill="#474747"/>
</svg>
