<svg width="28" height="28" viewBox="0 0 28 28" fill="none" xmlns="http://www.w3.org/2000/svg">
<path d="M20.7137 16.3333C21.4095 16.3339 22.0766 16.6107 22.5684 17.1029C23.0602 17.5952 23.3364 18.2625 23.3364 18.9583V19.6291C23.3364 20.6721 22.9631 21.6813 22.2864 22.4734C20.4547 24.6119 17.6699 25.6678 13.9996 25.6678C10.3292 25.6678 7.54556 24.6119 5.71856 22.4711C5.04261 21.6794 4.67114 20.6725 4.6709 19.6314V18.9571C4.67121 18.2613 4.94775 17.5941 5.43974 17.1021C5.93174 16.6101 6.59894 16.3336 7.29473 16.3333H20.7137ZM20.7137 18.0833H7.29356C7.0615 18.0833 6.83894 18.1755 6.67485 18.3396C6.51075 18.5037 6.41856 18.7262 6.41856 18.9583V19.6314C6.41856 20.2556 6.64256 20.8599 7.04856 21.3348C8.5104 23.0486 10.8052 23.9178 13.9984 23.9178C17.1939 23.9178 19.4887 23.0486 20.9552 21.3359C21.362 20.8603 21.5854 20.255 21.5852 19.6291V18.9571C21.5849 18.7257 21.4929 18.5037 21.3294 18.34C21.1658 18.1762 20.9452 18.0839 20.7137 18.0833ZM13.9996 2.33911C14.7656 2.33911 15.5242 2.48999 16.2319 2.78315C16.9396 3.0763 17.5827 3.50598 18.1244 4.04765C18.666 4.58933 19.0957 5.23239 19.3889 5.94012C19.682 6.64786 19.8329 7.4064 19.8329 8.17244C19.8329 8.93849 19.682 9.69703 19.3889 10.4048C19.0957 11.1125 18.666 11.7556 18.1244 12.2972C17.5827 12.8389 16.9396 13.2686 16.2319 13.5617C15.5242 13.8549 14.7656 14.0058 13.9996 14.0058C12.4525 14.0058 10.9687 13.3912 9.87477 12.2972C8.78081 11.2033 8.16623 9.71954 8.16623 8.17244C8.16623 6.62535 8.78081 5.14162 9.87477 4.04766C10.9687 2.95369 12.4525 2.33911 13.9996 2.33911ZM13.9996 4.08911C13.4633 4.08911 12.9324 4.19473 12.4369 4.39994C11.9415 4.60514 11.4914 4.90592 11.1122 5.28509C10.733 5.66426 10.4323 6.11441 10.2271 6.60982C10.0218 7.10523 9.91623 7.63621 9.91623 8.17244C9.91623 8.70868 10.0218 9.23966 10.2271 9.73507C10.4323 10.2305 10.733 10.6806 11.1122 11.0598C11.4914 11.439 11.9415 11.7397 12.4369 11.945C12.9324 12.1502 13.4633 12.2558 13.9996 12.2558C15.0825 12.2558 16.1211 11.8256 16.8869 11.0598C17.6527 10.294 18.0829 9.25541 18.0829 8.17244C18.0829 7.08948 17.6527 6.05086 16.8869 5.28509C16.1211 4.51932 15.0825 4.08911 13.9996 4.08911Z" fill="#535353"/>
</svg>
